<?xml version="1.0" encoding="UTF-8"?>
<!DOCTYPE svg PUBLIC "-//W3C//DTD SVG 1.1//EN" "http://www.w3.org/Graphics/SVG/1.1/DTD/svg11.dtd">
<svg xmlns="http://www.w3.org/2000/svg" version="1.1" width="2000px" height="2000px" style="shape-rendering:geometricPrecision; text-rendering:geometricPrecision; image-rendering:optimizeQuality; fill-rule:evenodd; clip-rule:evenodd" xmlns:xlink="http://www.w3.org/1999/xlink">
<g><path style="opacity:0.854" fill="#babbba" d="M 957.5,89.5 C 1187.23,81.915 1391.9,148.748 1571.5,290C 1742.75,430.546 1850.58,610.046 1895,828.5C 1935.57,1055.06 1898.24,1267.73 1783,1466.5C 1669.78,1651.7 1511.28,1782.2 1307.5,1858C 1130.91,1919.36 951.911,1927.36 770.5,1882C 564.645,1826.06 397.478,1713.56 269,1544.5C 120.334,1338.83 64.0008,1109.83 100,857.5C 139.139,629.305 246.972,441.472 423.5,294C 579.066,168.774 757.066,100.607 957.5,89.5 Z M 997.5,96.5 C 1235.5,99.579 1441.83,180.746 1616.5,340C 1777.9,493.63 1871.73,681.797 1898,904.5C 1920.03,1143.77 1859.37,1359.1 1716,1550.5C 1568.7,1737.13 1377.2,1850.96 1141.5,1892C 915.895,1924.95 706.562,1881.28 513.5,1761C 328.924,1640.14 203.091,1474.31 136,1263.5C 77.9639,1065.16 84.9639,869.163 157,675.5C 235.93,477.101 367.43,323.934 551.5,216C 689.877,137.739 838.544,97.9058 997.5,96.5 Z"/></g>
<g><path style="opacity:1" fill="#babbba" d="M 994.5,431.5 C 998.167,431.5 1001.83,431.5 1005.5,431.5C 1005.5,623.167 1005.5,814.833 1005.5,1006.5C 1196.83,1006.5 1388.17,1006.5 1579.5,1006.5C 1579.5,1009.83 1579.5,1013.17 1579.5,1016.5C 1388.17,1016.5 1196.83,1016.5 1005.5,1016.5C 1005.5,1208.5 1005.5,1400.5 1005.5,1592.5C 1001.83,1592.5 998.167,1592.5 994.5,1592.5C 994.5,1400.5 994.5,1208.5 994.5,1016.5C 802.5,1016.5 610.5,1016.5 418.5,1016.5C 418.5,1013.17 418.5,1009.83 418.5,1006.5C 610.5,1006.5 802.5,1006.5 994.5,1006.5C 994.5,814.833 994.5,623.167 994.5,431.5 Z"/></g>
</svg>
