<?xml version="1.0" encoding="UTF-8"?>
<!DOCTYPE svg PUBLIC "-//W3C//DTD SVG 1.1//EN" "http://www.w3.org/Graphics/SVG/1.1/DTD/svg11.dtd">
<svg xmlns="http://www.w3.org/2000/svg" version="1.1" width="2000px" height="2000px" style="shape-rendering:geometricPrecision; text-rendering:geometricPrecision; image-rendering:optimizeQuality; fill-rule:evenodd; clip-rule:evenodd" xmlns:xlink="http://www.w3.org/1999/xlink">
<g><path style="opacity:0.855" fill="#babbba" d="M 957.5,80.5 C 1212.18,72.7595 1433.85,153.26 1622.5,322C 1805.15,493.836 1903.98,705.67 1919,957.5C 1927.19,1211.65 1847.19,1432.98 1679,1621.5C 1507.01,1804.72 1294.84,1903.89 1042.5,1919C 788.352,1927.19 567.019,1847.19 378.5,1679C 195.277,1507.01 96.1104,1294.84 81,1042.5C 72.8051,788.352 152.805,567.019 321,378.5C 493.177,195.346 705.343,96.0128 957.5,80.5 Z M 997.5,87.5 C 1258.98,91.4252 1480.48,186.425 1662,372.5C 1825.2,548.894 1908.7,758.06 1912.5,1000C 1907.87,1260.5 1812.87,1481.16 1627.5,1662C 1451.1,1825.2 1241.94,1908.7 1000,1912.5C 739.506,1907.87 518.839,1812.87 338,1627.5C 174.798,1451.11 91.2981,1241.94 87.5,1000C 92.1323,739.502 187.132,518.835 372.5,338C 548.373,175.459 756.707,91.9587 997.5,87.5 Z M 1024.5,550.5 C 1042.18,550.373 1059.85,550.873 1077.5,552C 1080.91,552.297 1084.25,552.964 1087.5,554C 1085.04,555.216 1082.37,555.882 1079.5,556C 1102.16,556.741 1124.83,557.407 1147.5,558C 1151.37,558.105 1155.04,558.938 1158.5,560.5C 1156.03,561.896 1153.36,562.73 1150.5,563C 1163.83,563.333 1177.17,563.667 1190.5,564C 1192.42,564.36 1194.09,565.194 1195.5,566.5C 1194.91,567.799 1193.91,568.632 1192.5,569C 1202.22,569.141 1211.88,569.807 1221.5,571C 1224.69,571.981 1225.02,573.314 1222.5,575C 1222.83,575.333 1223.17,575.667 1223.5,576C 1231.83,576.333 1240.17,576.667 1248.5,577C 1251.92,578.143 1252.25,579.81 1249.5,582C 1255.83,582.333 1262.17,582.667 1268.5,583C 1270.62,583.26 1272.28,584.26 1273.5,586C 1272.83,586.667 1272.17,587.333 1271.5,588C 1278.55,588.211 1285.55,588.878 1292.5,590C 1294.78,591.482 1294.78,593.149 1292.5,595C 1297.83,595.333 1303.17,595.667 1308.5,596C 1311.92,597.143 1312.25,598.81 1309.5,601C 1315.58,601.138 1321.58,601.804 1327.5,603C 1330.17,604.333 1330.17,605.667 1327.5,607C 1332.51,607.871 1337.51,608.704 1342.5,609.5C 1343.75,611.006 1343.75,612.506 1342.5,614C 1346.83,614.333 1351.17,614.667 1355.5,615C 1358.27,615.691 1358.93,617.191 1357.5,619.5C 1361.46,620.327 1365.46,620.827 1369.5,621C 1372.05,622.316 1372.71,624.149 1371.5,626.5C 1375.12,627.325 1378.79,627.825 1382.5,628C 1385.17,629.667 1385.17,631.333 1382.5,633C 1386.89,633.226 1391.22,633.726 1395.5,634.5C 1397.14,635.705 1397.47,637.038 1396.5,638.5C 1400.64,639.153 1404.47,640.487 1408,642.5C 1408.51,643.996 1408.01,645.163 1406.5,646C 1410.62,646.143 1414.62,646.81 1418.5,648C 1419.93,649.714 1419.59,651.047 1417.5,652C 1420.83,652.333 1424.17,652.667 1427.5,653C 1429.44,654.816 1430.11,656.816 1429.5,659C 1432.56,659.256 1435.56,659.756 1438.5,660.5C 1439.75,662.006 1439.75,663.506 1438.5,665C 1441.17,665.333 1443.83,665.667 1446.5,666C 1448.53,667.396 1448.86,669.062 1447.5,671C 1450.58,671.346 1453.58,672.012 1456.5,673C 1457.83,674.667 1457.83,676.333 1456.5,678C 1459.55,678.179 1462.55,678.679 1465.5,679.5C 1466.83,680.833 1466.83,682.167 1465.5,683.5C 1468.03,684.214 1470.53,684.88 1473,685.5C 1473.49,687.134 1473.66,688.801 1473.5,690.5C 1477.39,689.945 1480.39,691.279 1482.5,694.5C 1482.02,695.478 1481.36,696.311 1480.5,697C 1483.22,697.27 1485.89,697.77 1488.5,698.5C 1490.97,700.098 1490.97,701.598 1488.5,703C 1491.19,703.771 1493.86,704.604 1496.5,705.5C 1496.72,706.967 1497.06,708.467 1497.5,710C 1502.47,709.466 1504.47,711.633 1503.5,716.5C 1505.6,716.201 1507.6,716.534 1509.5,717.5C 1510.75,719.042 1510.75,720.542 1509.5,722C 1515.47,721.138 1517.81,723.638 1516.5,729.5C 1521.5,728.5 1523.5,730.5 1522.5,735.5C 1527.03,734.886 1529.2,736.886 1529,741.5C 1530.11,743.037 1531.61,743.703 1533.5,743.5C 1533.71,745.144 1533.38,746.644 1532.5,748C 1536.66,748.334 1537.99,750.334 1536.5,754C 1538.58,754.192 1540.58,754.692 1542.5,755.5C 1543.26,757.451 1543.59,759.284 1543.5,761C 1545.13,761.494 1546.8,761.66 1548.5,761.5C 1548.19,763.924 1548.53,766.257 1549.5,768.5C 1551.74,767.617 1553.41,768.451 1554.5,771C 1554.04,771.414 1553.71,771.914 1553.5,772.5C 1555.02,774.547 1555.85,776.881 1556,779.5C 1557.7,780.406 1559.53,780.739 1561.5,780.5C 1561.5,783.167 1561.5,785.833 1561.5,788.5C 1562.83,788.5 1564.17,788.5 1565.5,788.5C 1565.8,791.269 1566.8,793.769 1568.5,796C 1567.67,797.465 1567.5,798.965 1568,800.5C 1569.7,799.594 1571.53,799.261 1573.5,799.5C 1573.52,803.607 1574.18,807.607 1575.5,811.5C 1576.74,812.246 1578.07,812.579 1579.5,812.5C 1579.76,816.853 1580.26,821.187 1581,825.5C 1583.02,824.009 1584.69,824.342 1586,826.5C 1586.33,831.5 1586.67,836.5 1587,841.5C 1588.4,843.192 1590.23,843.859 1592.5,843.5C 1593.11,849.815 1593.44,856.149 1593.5,862.5C 1595.72,862.178 1597.56,862.845 1599,864.5C 1599.33,873.167 1599.67,881.833 1600,890.5C 1600.95,888.408 1602.29,888.075 1604,889.5C 1605.1,903.966 1605.6,918.466 1605.5,933C 1605.59,947.864 1605.09,962.697 1604,977.5C 1602.41,978.727 1601.08,978.394 1600,976.5C 1599.67,984.833 1599.33,993.167 1599,1001.5C 1597.66,1003 1596,1004 1594,1004.5C 1593.5,1010.51 1593,1016.51 1592.5,1022.5C 1590.28,1022.18 1588.44,1022.84 1587,1024.5C 1586.47,1030.17 1585.97,1035.84 1585.5,1041.5C 1583.55,1041.77 1582.05,1041.11 1581,1039.5C 1580.62,1044.21 1579.96,1048.88 1579,1053.5C 1577.64,1054.38 1576.14,1054.71 1574.5,1054.5C 1574.33,1058.53 1573.83,1062.53 1573,1066.5C 1571.33,1067.83 1569.67,1067.83 1568,1066.5C 1568.31,1068.44 1568.31,1070.44 1568,1072.5C 1566.39,1073.15 1564.89,1073.98 1563.5,1075C 1564.61,1076.81 1563.94,1077.65 1561.5,1077.5C 1561.5,1080.5 1561.5,1083.5 1561.5,1086.5C 1559.5,1086.5 1557.5,1086.5 1555.5,1086.5C 1555.19,1090.27 1554.36,1093.93 1553,1097.5C 1551.64,1098.38 1550.14,1098.71 1548.5,1098.5C 1549.86,1103.75 1547.86,1106.42 1542.5,1106.5C 1543.83,1107.83 1543.83,1109.17 1542.5,1110.5C 1540.63,1111.62 1538.63,1112.46 1536.5,1113C 1537.61,1116.92 1535.94,1118.92 1531.5,1119C 1532.52,1120.05 1532.68,1121.22 1532,1122.5C 1530.41,1123.38 1528.91,1124.38 1527.5,1125.5C 1528.33,1126.45 1528.49,1127.45 1528,1128.5C 1525.95,1129.89 1523.79,1131.05 1521.5,1132C 1522.83,1133.33 1522.83,1134.67 1521.5,1136C 1519.5,1136.67 1517.5,1137.33 1515.5,1138C 1516.55,1139.39 1516.72,1140.89 1516,1142.5C 1513.85,1143.11 1511.69,1143.78 1509.5,1144.5C 1510.73,1146.4 1510.4,1148.06 1508.5,1149.5C 1506.56,1150.19 1504.56,1150.69 1502.5,1151C 1503.86,1152.94 1503.53,1154.6 1501.5,1156C 1499.5,1156.33 1497.5,1156.67 1495.5,1157C 1496.83,1158.67 1496.83,1160.33 1495.5,1162C 1493.12,1162.51 1490.79,1163.18 1488.5,1164C 1489.73,1165.59 1489.39,1166.92 1487.5,1168C 1485.29,1169.04 1482.95,1169.71 1480.5,1170C 1481.86,1171.94 1481.53,1173.6 1479.5,1175C 1477.1,1175.19 1474.77,1175.69 1472.5,1176.5C 1473.95,1178.64 1473.62,1180.48 1471.5,1182C 1469.53,1182.5 1467.53,1182.66 1465.5,1182.5C 1465.79,1184.29 1465.45,1185.95 1464.5,1187.5C 1461.56,1188.24 1458.56,1188.74 1455.5,1189C 1456.99,1191.02 1456.66,1192.69 1454.5,1194C 1452.19,1194.5 1449.86,1194.66 1447.5,1194.5C 1447.8,1196.6 1447.47,1198.6 1446.5,1200.5C 1443.56,1201.24 1440.56,1201.74 1437.5,1202C 1438.99,1204.02 1438.66,1205.69 1436.5,1207C 1433.5,1207.33 1430.5,1207.67 1427.5,1208C 1428.55,1209.39 1428.72,1210.89 1428,1212.5C 1424.55,1213.38 1421.05,1214.22 1417.5,1215C 1418.83,1216.33 1418.83,1217.67 1417.5,1219C 1413.95,1220.17 1410.29,1220.84 1406.5,1221C 1407.86,1222.94 1407.53,1224.6 1405.5,1226C 1402.12,1226.18 1398.78,1226.68 1395.5,1227.5C 1396.78,1229.62 1396.28,1231.29 1394,1232.5C 1390.21,1233.23 1386.37,1233.73 1382.5,1234C 1384.01,1236.45 1383.35,1238.12 1380.5,1239C 1376.83,1239.33 1373.17,1239.67 1369.5,1240C 1372.17,1241.67 1372.17,1243.33 1369.5,1245C 1365.5,1245.33 1361.5,1245.67 1357.5,1246C 1357.51,1247.58 1357.17,1249.25 1356.5,1251C 1351.56,1252.09 1346.56,1252.75 1341.5,1253C 1343.95,1254.61 1343.78,1256.11 1341,1257.5C 1335.87,1258.26 1330.7,1258.76 1325.5,1259C 1328.17,1260.67 1328.17,1262.33 1325.5,1264C 1320.2,1264.93 1314.87,1265.6 1309.5,1266C 1311.13,1269.06 1310.13,1270.73 1306.5,1271C 1301.5,1271.33 1296.5,1271.67 1291.5,1272C 1294.28,1274.78 1293.62,1276.45 1289.5,1277C 1282.83,1277.33 1276.17,1277.67 1269.5,1278C 1271.39,1279.08 1271.73,1280.41 1270.5,1282C 1268.61,1282.97 1266.61,1283.64 1264.5,1284C 1259.17,1284.33 1253.83,1284.67 1248.5,1285C 1250.71,1287.26 1250.04,1288.93 1246.5,1290C 1237.5,1290.33 1228.5,1290.67 1219.5,1291C 1220.91,1291.37 1221.91,1292.2 1222.5,1293.5C 1221.29,1295.07 1219.62,1295.9 1217.5,1296C 1208.81,1296.17 1200.15,1296.67 1191.5,1297.5C 1191.98,1298.48 1192.64,1299.31 1193.5,1300C 1191.51,1301.75 1189.18,1302.75 1186.5,1303C 1173.17,1303.33 1159.83,1303.67 1146.5,1304C 1149.29,1304.24 1151.96,1304.91 1154.5,1306C 1154.17,1306.33 1153.83,1306.67 1153.5,1307C 1149.25,1308.13 1144.92,1308.79 1140.5,1309C 1114.83,1309.33 1089.17,1309.67 1063.5,1310C 1069.29,1310.12 1074.96,1310.95 1080.5,1312.5C 1079.83,1312.83 1079.17,1313.17 1078.5,1313.5C 1054.5,1316.13 1030.5,1316.13 1006.5,1313.5C 1003.96,1312.67 1004.13,1312 1007,1311.5C 1011.48,1310.82 1015.98,1310.32 1020.5,1310C 994.833,1309.67 969.167,1309.33 943.5,1309C 939.044,1308.74 934.711,1307.9 930.5,1306.5C 930.709,1305.91 931.043,1305.41 931.5,1305C 933.833,1304.67 936.167,1304.33 938.5,1304C 924.833,1303.67 911.167,1303.33 897.5,1303C 893.318,1303 891.651,1301.17 892.5,1297.5C 882.778,1296.92 873.112,1296.09 863.5,1295C 861.003,1292.74 861.67,1291.41 865.5,1291C 856.5,1290.67 847.5,1290.33 838.5,1290C 834.87,1289.73 833.87,1288.06 835.5,1285C 828.782,1284.77 822.115,1284.11 815.5,1283C 812.833,1281.33 812.833,1279.67 815.5,1278C 808.833,1277.67 802.167,1277.33 795.5,1277C 791.383,1276.45 790.716,1274.78 793.5,1272C 787.419,1271.86 781.419,1271.2 775.5,1270C 772.833,1268.67 772.833,1267.33 775.5,1266C 770.416,1265.83 765.416,1265.16 760.5,1264C 755.167,1262.33 755.167,1260.67 760.5,1259C 755.833,1258.33 751.167,1258.33 746.5,1259C 750.5,1260.67 750.5,1262.33 746.5,1264C 741.563,1265.09 736.563,1265.75 731.5,1266C 732.833,1267.33 732.833,1268.67 731.5,1270C 726.25,1271.17 720.916,1271.84 715.5,1272C 718.249,1274.19 717.915,1275.86 714.5,1277C 709.167,1277.33 703.833,1277.67 698.5,1278C 699.833,1279.67 699.833,1281.33 698.5,1283C 693.896,1284.06 689.229,1284.73 684.5,1285C 686.013,1287.45 685.346,1289.12 682.5,1290C 677.5,1290.33 672.5,1290.67 667.5,1291C 668.747,1292.49 668.747,1293.99 667.5,1295.5C 663.221,1296.27 658.887,1296.77 654.5,1297C 654.201,1298.32 654.034,1299.82 654,1301.5C 652.933,1302.19 651.766,1302.69 650.5,1303C 646.167,1303.33 641.833,1303.67 637.5,1304C 640.15,1306.08 639.816,1307.75 636.5,1309C 632.167,1309.33 627.833,1309.67 623.5,1310C 624.833,1311.67 624.833,1313.33 623.5,1315C 619.21,1315.92 614.877,1316.42 610.5,1316.5C 611.035,1319.24 610.035,1321.07 607.5,1322C 604.183,1322.5 600.85,1322.67 597.5,1322.5C 596.094,1317.07 598.094,1314.74 603.5,1315.5C 603.952,1311.84 604.452,1308.17 605,1304.5C 606.667,1303.83 608.333,1303.17 610,1302.5C 610.333,1299.17 610.667,1295.83 611,1292.5C 613,1291.17 615,1289.83 617,1288.5C 617.499,1284.85 617.665,1281.18 617.5,1277.5C 619.467,1277.74 621.301,1277.41 623,1276.5C 623.333,1270.83 623.667,1265.17 624,1259.5C 625.441,1258.74 626.941,1258.07 628.5,1257.5C 629.094,1249.01 630.094,1240.67 631.5,1232.5C 632.833,1232.5 634.167,1232.5 635.5,1232.5C 636.845,1222.54 637.345,1210.54 637,1196.5C 634.834,1194.88 632.334,1194.05 629.5,1194C 628.167,1192.33 628.167,1190.67 629.5,1189C 626.628,1188.69 623.795,1188.19 621,1187.5C 619.831,1186.99 618.998,1186.16 618.5,1185C 619.711,1184.11 619.711,1183.27 618.5,1182.5C 616.174,1182.9 613.841,1182.4 611.5,1181C 610.167,1179.33 610.167,1177.67 611.5,1176C 609.167,1175.67 606.833,1175.33 604.5,1175C 603.594,1173.3 603.261,1171.47 603.5,1169.5C 599.555,1170.43 596.888,1169.09 595.5,1165.5C 595.709,1164.91 596.043,1164.41 596.5,1164C 593.061,1163.78 590.395,1162.28 588.5,1159.5C 588.833,1158.83 589.167,1158.17 589.5,1157.5C 587.138,1156.73 584.804,1155.9 582.5,1155C 581.167,1153.67 581.167,1152.33 582.5,1151C 577.242,1151.07 574.908,1148.57 575.5,1143.5C 572.288,1143.89 569.954,1142.73 568.5,1140C 568.905,1139.05 569.572,1138.39 570.5,1138C 567.154,1138.23 564.82,1136.89 563.5,1134C 563.645,1133.23 563.978,1132.56 564.5,1132C 559.36,1132.37 557.36,1130.2 558.5,1125.5C 556.604,1124.53 554.604,1124.2 552.5,1124.5C 551.948,1122.67 551.948,1121 552.5,1119.5C 550.604,1118.53 548.604,1118.2 546.5,1118.5C 545.862,1116.54 545.862,1114.71 546.5,1113C 544.75,1111.68 542.75,1111.18 540.5,1111.5C 540.5,1109.17 540.5,1106.83 540.5,1104.5C 536.324,1105.17 534.991,1103.67 536.5,1100C 535.584,1099.63 534.75,1099.13 534,1098.5C 534.534,1093.53 532.367,1091.53 527.5,1092.5C 527.663,1090.14 527.497,1087.81 527,1085.5C 523.992,1087.03 522.158,1086.03 521.5,1082.5C 521.709,1081.91 522.043,1081.41 522.5,1081C 520.887,1078.77 520.22,1076.27 520.5,1073.5C 518.712,1073.79 517.045,1073.45 515.5,1072.5C 515.463,1068.95 515.13,1065.28 514.5,1061.5C 512.738,1061.64 511.071,1061.31 509.5,1060.5C 508.509,1056.55 508.176,1052.55 508.5,1048.5C 506.5,1048.5 504.5,1048.5 502.5,1048.5C 502.666,1044.49 502.499,1040.49 502,1036.5C 500,1035.83 498,1035.17 496,1034.5C 496.043,1028.93 495.71,1023.27 495,1017.5C 493.506,1021.3 492.672,1020.97 492.5,1016.5C 491.5,1016.5 490.5,1016.5 489.5,1016.5C 489.829,1010.46 489.496,1004.46 488.5,998.5C 486.929,997.691 485.262,997.357 483.5,997.5C 483.667,985.829 483.5,974.162 483,962.5C 482.333,965.167 481.667,967.833 481,970.5C 479.883,969.051 479.216,967.384 479,965.5C 475.478,942.111 475.812,918.778 480,895.5C 482.093,898.044 483.093,901.044 483,904.5C 483.029,891.073 483.862,877.74 485.5,864.5C 487.124,864.36 488.29,865.027 489,866.5C 489.101,859.353 490.101,852.353 492,845.5C 493,844.167 494,844.167 495,845.5C 495.339,842.964 495.839,840.464 496.5,838C 495.713,835.901 495.38,833.734 495.5,831.5C 497.936,831.683 500.103,831.016 502,829.5C 502.777,826.571 502.61,823.737 501.5,821C 502.505,819.493 503.838,818.327 505.5,817.5C 504.41,816.391 504.41,815.391 505.5,814.5C 506.251,815.376 506.751,816.376 507,817.5C 507.333,817.167 507.667,816.833 508,816.5C 508.499,812.848 508.665,809.182 508.5,805.5C 509.552,805.649 510.552,805.483 511.5,805C 510.167,803.667 510.167,802.333 511.5,801C 512.825,801.148 513.992,800.982 515,800.5C 514.626,798.231 514.626,795.898 515,793.5C 516.699,792.594 518.533,792.261 520.5,792.5C 520.952,788.837 521.452,785.17 522,781.5C 523.947,780.89 525.781,780.057 527.5,779C 526.862,777.293 526.862,775.46 527.5,773.5C 529.527,773.662 531.527,773.495 533.5,773C 532.633,770.684 533.299,768.684 535.5,767C 533.666,762.325 535.333,760.492 540.5,761.5C 539.115,756.187 541.115,753.687 546.5,754C 545.039,749.693 546.705,747.859 551.5,748.5C 551.028,743.917 553.028,741.417 557.5,741C 556.044,740.577 555.544,739.744 556,738.5C 557.8,736.683 559.966,735.516 562.5,735C 561.483,733.951 561.316,732.784 562,731.5C 563.987,730.782 565.821,729.782 567.5,728.5C 566.674,727.549 566.508,726.549 567,725.5C 569.28,723.963 571.78,722.797 574.5,722C 573.167,720.667 573.167,719.333 574.5,718C 576.788,717.178 579.122,716.511 581.5,716C 578.833,714.333 578.833,712.667 581.5,711C 583.167,710.667 584.833,710.333 586.5,710C 587.833,709 587.833,708 586.5,707C 589.314,704.504 592.647,703.17 596.5,703C 594.993,702.163 594.493,700.996 595,699.5C 597.596,697.98 600.429,697.147 603.5,697C 600.936,694.724 601.27,692.724 604.5,691C 606.5,690.667 608.5,690.333 610.5,690C 609.14,688.062 609.473,686.396 611.5,685C 613.833,684.667 616.167,684.333 618.5,684C 617.14,682.062 617.473,680.396 619.5,679C 622.226,678.818 624.893,678.318 627.5,677.5C 626.278,675.091 626.945,673.258 629.5,672C 631.833,671.667 634.167,671.333 636.5,671C 635.14,669.062 635.473,667.396 637.5,666C 640.167,665.667 642.833,665.333 645.5,665C 644.253,663.506 644.253,662.006 645.5,660.5C 648.443,659.756 651.443,659.256 654.5,659C 653.892,656.816 654.559,654.816 656.5,653C 659.833,652.667 663.167,652.333 666.5,652C 663.833,650.333 663.833,648.667 666.5,647C 670.167,646.667 673.833,646.333 677.5,646C 675.993,645.163 675.493,643.996 676,642.5C 679.47,640.303 683.303,638.969 687.5,638.5C 686.529,637.038 686.862,635.705 688.5,634.5C 692.445,633.732 696.445,633.232 700.5,633C 699.14,631.062 699.473,629.396 701.5,628C 705.211,627.825 708.878,627.325 712.5,626.5C 711.218,624.378 711.718,622.711 714,621.5C 718.127,620.761 722.294,620.261 726.5,620C 725.14,618.062 725.473,616.396 727.5,615C 732.167,614.667 736.833,614.333 741.5,614C 740.253,612.506 740.253,611.006 741.5,609.5C 746.488,608.704 751.488,607.871 756.5,607C 754.987,604.546 755.654,602.879 758.5,602C 763.833,601.667 769.167,601.333 774.5,601C 771.85,598.918 772.184,597.251 775.5,596C 780.833,595.667 786.167,595.333 791.5,595C 788.833,593.333 788.833,591.667 791.5,590C 798.782,588.865 806.115,588.199 813.5,588C 812.328,587.581 811.328,586.915 810.5,586C 812.001,584.748 813.668,583.748 815.5,583C 821.833,582.667 828.167,582.333 834.5,582C 831.751,579.81 832.085,578.143 835.5,577C 843.853,576.832 852.187,576.332 860.5,575.5C 859.754,574.264 859.421,572.93 859.5,571.5C 870.086,569.93 880.753,569.097 891.5,569C 890.328,568.581 889.328,567.915 888.5,567C 889.716,565.26 891.382,564.26 893.5,564C 907.167,563.667 920.833,563.333 934.5,563C 923.975,560.794 924.309,559.127 935.5,558C 958.835,557.405 982.169,556.739 1005.5,556C 1002.3,555.899 999.3,555.232 996.5,554C 997.5,553.667 998.5,553.333 999.5,553C 1007.98,552.091 1016.31,551.258 1024.5,550.5 Z M 592.5,1323.5 C 593.833,1323.5 595.167,1323.5 596.5,1323.5C 596.839,1328.24 594.839,1329.57 590.5,1327.5C 591.18,1326.14 591.847,1324.81 592.5,1323.5 Z"/></g>
<g><path style="opacity:0.733" fill="#babbba" d="M 948.5,509.5 C 1010.83,509.5 1073.17,509.5 1135.5,509.5C 1135.5,510.5 1135.5,511.5 1135.5,512.5C 1146.84,512.333 1158.17,512.5 1169.5,513C 1167.71,513.196 1166.38,514.029 1165.5,515.5C 1167.22,516.934 1169.22,517.767 1171.5,518C 1182.17,518.333 1192.83,518.667 1203.5,519C 1199.53,520.721 1199.53,522.388 1203.5,524C 1214.46,525.153 1225.46,525.819 1236.5,526C 1235.33,526.419 1234.33,527.085 1233.5,528C 1234.72,529.74 1236.38,530.74 1238.5,531C 1245.5,531.333 1252.5,531.667 1259.5,532C 1257,533.549 1257,535.216 1259.5,537C 1266.17,537.333 1272.83,537.667 1279.5,538C 1281.81,538.354 1282.14,539.354 1280.5,541C 1280.91,541.945 1281.57,542.612 1282.5,543C 1289.1,544.163 1295.77,544.83 1302.5,545C 1299.75,547.19 1300.08,548.857 1303.5,550C 1309.17,550.333 1314.83,550.667 1320.5,551C 1317.83,552.667 1317.83,554.333 1320.5,556C 1326.16,556.888 1331.82,557.721 1337.5,558.5C 1336.51,560.981 1337.51,562.481 1340.5,563C 1344.83,563.333 1349.17,563.667 1353.5,564C 1351.41,564.953 1351.07,566.286 1352.5,568C 1357.76,569.069 1363.09,569.903 1368.5,570.5C 1367.25,572.042 1367.25,573.542 1368.5,575C 1372.8,575.964 1377.13,576.797 1381.5,577.5C 1380.14,579.306 1380.47,580.806 1382.5,582C 1387.17,582.333 1391.83,582.667 1396.5,583C 1393.83,584.667 1393.83,586.333 1396.5,588C 1400.22,588.388 1403.89,589.055 1407.5,590C 1406.14,591.938 1406.47,593.604 1408.5,595C 1412.5,595.333 1416.5,595.667 1420.5,596C 1417.83,597.667 1417.83,599.333 1420.5,601C 1424.17,601.333 1427.83,601.667 1431.5,602C 1428.83,603.667 1428.83,605.333 1431.5,607C 1434.71,608.153 1438.04,608.82 1441.5,609C 1439.99,611.454 1440.65,613.121 1443.5,614C 1446.5,614.333 1449.5,614.667 1452.5,615C 1449.83,616.667 1449.83,618.333 1452.5,620C 1455.55,620.179 1458.55,620.679 1461.5,621.5C 1460.25,623.042 1460.25,624.542 1461.5,626C 1464.75,627.036 1468.09,627.703 1471.5,628C 1470.17,629.667 1470.17,631.333 1471.5,633C 1474.23,633.182 1476.89,633.682 1479.5,634.5C 1478.67,635.451 1478.51,636.451 1479,637.5C 1481.85,639.345 1485.02,640.511 1488.5,641C 1487.4,642.68 1487.73,644.18 1489.5,645.5C 1491.75,646.374 1494.08,646.708 1496.5,646.5C 1496.34,648.199 1496.51,649.866 1497,651.5C 1499.41,652.274 1501.91,652.774 1504.5,653C 1502.82,656.092 1503.65,658.259 1507,659.5C 1508.11,658.289 1509.28,658.289 1510.5,659.5C 1511.45,661.045 1511.79,662.712 1511.5,664.5C 1514.52,664.804 1517.52,665.304 1520.5,666C 1519.48,667.049 1519.32,668.216 1520,669.5C 1521.83,671.074 1523.99,671.907 1526.5,672C 1525.89,674.184 1526.56,676.184 1528.5,678C 1530.5,678.333 1532.5,678.667 1534.5,679C 1533.52,683.517 1535.52,685.35 1540.5,684.5C 1539.91,689.566 1542.24,692.066 1547.5,692C 1546.48,693.049 1546.32,694.216 1547,695.5C 1548.92,696.928 1551.08,697.928 1553.5,698.5C 1552.54,699.812 1552.71,701.146 1554,702.5C 1555.83,703.103 1557.66,703.77 1559.5,704.5C 1558.29,706.851 1558.95,708.684 1561.5,710C 1565.25,709.965 1565.91,710.965 1563.5,713C 1564.73,714.529 1566.23,715.696 1568,716.5C 1568.33,718.167 1568.67,719.833 1569,721.5C 1570.95,722.11 1572.78,722.943 1574.5,724C 1573.01,727.042 1574.01,728.875 1577.5,729.5C 1578.44,729.392 1579.28,729.059 1580,728.5C 1579.69,730.443 1579.69,732.443 1580,734.5C 1581.7,735.406 1583.53,735.739 1585.5,735.5C 1584.73,739.242 1586.06,741.742 1589.5,743C 1588.66,744.011 1588.33,745.178 1588.5,746.5C 1589.83,746.5 1591.17,746.5 1592.5,746.5C 1592.34,748.857 1592.5,751.19 1593,753.5C 1594.7,754.406 1596.53,754.739 1598.5,754.5C 1598.34,756.527 1598.5,758.527 1599,760.5C 1599.75,761.126 1600.58,761.626 1601.5,762C 1599.99,765.669 1601.32,767.169 1605.5,766.5C 1605.19,768.924 1605.53,771.257 1606.5,773.5C 1608.07,774.309 1609.74,774.643 1611.5,774.5C 1612.07,777.583 1612.07,780.583 1611.5,783.5C 1612.85,785.657 1614.85,786.99 1617.5,787.5C 1618.26,791.111 1618.76,794.778 1619,798.5C 1620.7,799.406 1622.53,799.739 1624.5,799.5C 1624.5,803.833 1624.5,808.167 1624.5,812.5C 1627.08,812.083 1629.25,812.75 1631,814.5C 1631.53,820.171 1632.03,825.838 1632.5,831.5C 1634.14,831.714 1635.64,831.38 1637,830.5C 1637.33,836.833 1637.67,843.167 1638,849.5C 1639.67,850.167 1641.33,850.833 1643,851.5C 1644.44,857.498 1644.61,863.498 1643.5,869.5C 1644.83,869.5 1646.17,869.5 1647.5,869.5C 1647.5,911.833 1647.5,954.167 1647.5,996.5C 1645.05,996.085 1643.72,997.085 1643.5,999.5C 1644.03,1004.79 1644.03,1010.12 1643.5,1015.5C 1641.28,1015.18 1639.44,1015.84 1638,1017.5C 1637.67,1023.83 1637.33,1030.17 1637,1036.5C 1634.98,1035.01 1633.31,1035.34 1632,1037.5C 1631.67,1042.5 1631.33,1047.5 1631,1052.5C 1629.1,1054.02 1626.94,1054.68 1624.5,1054.5C 1624.82,1058.55 1624.49,1062.55 1623.5,1066.5C 1621.93,1067.31 1620.26,1067.64 1618.5,1067.5C 1618.67,1071.18 1618.5,1074.85 1618,1078.5C 1615.69,1078.96 1613.69,1079.96 1612,1081.5C 1612.1,1085 1611.94,1088.67 1611.5,1092.5C 1609.5,1092.5 1607.5,1092.5 1605.5,1092.5C 1605.66,1095.19 1605.5,1097.85 1605,1100.5C 1603.67,1099.17 1602.33,1099.17 1601,1100.5C 1599.86,1104.12 1599.03,1107.79 1598.5,1111.5C 1596.53,1111.26 1594.7,1111.59 1593,1112.5C 1592.5,1114.81 1592.34,1117.14 1592.5,1119.5C 1588.98,1119.19 1587.64,1120.52 1588.5,1123.5C 1585.91,1125.07 1584.91,1127.4 1585.5,1130.5C 1580.09,1129.74 1578.09,1132.07 1579.5,1137.5C 1574.25,1136.77 1572.08,1139.1 1573,1144.5C 1568.61,1143.4 1567.11,1145.06 1568.5,1149.5C 1567.15,1150.95 1565.48,1151.62 1563.5,1151.5C 1563.29,1153.14 1563.62,1154.64 1564.5,1156C 1560.06,1156.08 1558.39,1158.08 1559.5,1162C 1554.36,1161.63 1552.36,1163.8 1553.5,1168.5C 1551.31,1169.22 1549.15,1169.89 1547,1170.5C 1546.28,1172.11 1546.45,1173.61 1547.5,1175C 1543.59,1174.56 1540.92,1176.06 1539.5,1179.5C 1539.71,1180.09 1540.04,1180.59 1540.5,1181C 1538.11,1181.3 1535.94,1182.14 1534,1183.5C 1533.28,1185.11 1533.45,1186.61 1534.5,1188C 1532.5,1188.33 1530.5,1188.67 1528.5,1189C 1526.47,1190.4 1526.14,1192.06 1527.5,1194C 1523.65,1193.92 1520.65,1195.42 1518.5,1198.5C 1518.83,1199.17 1519.17,1199.83 1519.5,1200.5C 1516.84,1201.26 1514.18,1201.93 1511.5,1202.5C 1510.25,1204.01 1510.25,1205.51 1511.5,1207C 1509.17,1207.33 1506.83,1207.67 1504.5,1208C 1503.59,1209.7 1503.26,1211.53 1503.5,1213.5C 1497.53,1212.31 1495.2,1214.48 1496.5,1220C 1493.78,1220.27 1491.11,1220.77 1488.5,1221.5C 1487.25,1223.01 1487.25,1224.51 1488.5,1226C 1485.38,1226.21 1482.38,1226.87 1479.5,1228C 1478.83,1229.67 1478.17,1231.33 1477.5,1233C 1474.67,1233.05 1472.17,1233.88 1470,1235.5C 1469.51,1236.55 1469.67,1237.55 1470.5,1238.5C 1467.1,1239.17 1463.77,1240.01 1460.5,1241C 1459.17,1242.33 1459.17,1243.67 1460.5,1245C 1457.83,1245.33 1455.17,1245.67 1452.5,1246C 1450.4,1247.73 1450.07,1249.73 1451.5,1252C 1448.17,1252.33 1444.83,1252.67 1441.5,1253C 1439.47,1254.4 1439.14,1256.06 1440.5,1258C 1435.88,1257.73 1431.88,1259.06 1428.5,1262C 1429.17,1262.67 1429.83,1263.33 1430.5,1264C 1426.71,1264.16 1423.05,1264.83 1419.5,1266C 1416.83,1267.67 1416.83,1269.33 1419.5,1271C 1415.5,1271.33 1411.5,1271.67 1407.5,1272C 1405.47,1273.4 1405.14,1275.06 1406.5,1277C 1403.5,1277.33 1400.5,1277.67 1397.5,1278C 1394.59,1278.85 1393.59,1280.51 1394.5,1283C 1390.28,1284.2 1385.95,1284.87 1381.5,1285C 1378.83,1286.67 1378.83,1288.33 1381.5,1290C 1377.5,1290.33 1373.5,1290.67 1369.5,1291C 1365.6,1291.81 1364.94,1293.47 1367.5,1296C 1362.12,1296.31 1356.78,1296.97 1351.5,1298C 1350.25,1299.46 1350.25,1300.96 1351.5,1302.5C 1346.87,1303.33 1342.2,1303.83 1337.5,1304C 1335,1305.78 1335,1307.45 1337.5,1309C 1332.17,1309.33 1326.83,1309.67 1321.5,1310C 1318.51,1310.52 1317.51,1312.02 1318.5,1314.5C 1312.81,1315.21 1307.14,1316.04 1301.5,1317C 1298.83,1318.67 1298.83,1320.33 1301.5,1322C 1295.17,1322.33 1288.83,1322.67 1282.5,1323C 1279.18,1324.25 1278.85,1325.92 1281.5,1328C 1273.42,1328.1 1265.42,1328.76 1257.5,1330C 1255.6,1331.39 1255.26,1333.23 1256.5,1335.5C 1248.43,1335.14 1240.43,1335.64 1232.5,1337C 1231.04,1337.42 1230.54,1338.26 1231,1339.5C 1232.4,1340.23 1233.9,1340.73 1235.5,1341C 1225.17,1341.33 1214.83,1341.67 1204.5,1342C 1201.99,1342.12 1199.99,1343.12 1198.5,1345C 1198.91,1345.95 1199.57,1346.61 1200.5,1347C 1189.46,1347.15 1178.46,1347.82 1167.5,1349C 1162.82,1350 1162.49,1351.67 1166.5,1354C 1146.17,1354.33 1125.83,1354.67 1105.5,1355C 1100.94,1355.11 1096.61,1356.11 1092.5,1358C 1095.42,1358.99 1098.42,1359.65 1101.5,1360C 1061.83,1360.67 1022.17,1360.67 982.5,1360C 985.877,1359.55 989.211,1358.88 992.5,1358C 988.351,1356.26 984.017,1355.26 979.5,1355C 958.833,1354.67 938.167,1354.33 917.5,1354C 922.73,1351.82 922.397,1350.15 916.5,1349C 905.549,1347.79 894.549,1347.12 883.5,1347C 884.428,1346.61 885.095,1345.95 885.5,1345C 884.318,1343.26 882.651,1342.26 880.5,1342C 870.167,1341.67 859.833,1341.33 849.5,1341C 853.547,1338.72 853.214,1337.06 848.5,1336C 841.508,1335.5 834.508,1335.33 827.5,1335.5C 827.739,1333.53 827.406,1331.7 826.5,1330C 818.562,1328.8 810.562,1328.14 802.5,1328C 803.672,1327.58 804.672,1326.91 805.5,1326C 803.999,1324.75 802.332,1323.75 800.5,1323C 794.5,1322.67 788.5,1322.33 782.5,1322C 785.167,1320.33 785.167,1318.67 782.5,1317C 776.539,1316 770.539,1315.34 764.5,1315C 765.428,1314.61 766.095,1313.95 766.5,1313C 765.556,1311.52 764.223,1310.52 762.5,1310C 756.833,1309.33 751.167,1309.33 745.5,1310C 743.382,1310.26 741.716,1311.26 740.5,1313C 741.167,1313.67 741.833,1314.33 742.5,1315C 737.118,1315.31 731.785,1315.97 726.5,1317C 725.167,1318.67 725.167,1320.33 726.5,1322C 721.833,1322.33 717.167,1322.67 712.5,1323C 707.849,1324.24 707.516,1325.9 711.5,1328C 705.769,1328.21 700.103,1328.88 694.5,1330C 693.826,1331.75 693.493,1333.42 693.5,1335C 689.5,1335.33 685.5,1335.67 681.5,1336C 678.085,1337.14 677.751,1338.81 680.5,1341C 675.833,1341.33 671.167,1341.67 666.5,1342C 662.383,1342.55 661.716,1344.22 664.5,1347C 659.771,1347.27 655.104,1347.94 650.5,1349C 649.167,1350.67 649.167,1352.33 650.5,1354C 645.5,1354.33 640.5,1354.67 635.5,1355C 632.997,1356.78 632.997,1358.45 635.5,1360C 631.167,1360.33 626.833,1360.67 622.5,1361C 619.654,1361.88 618.987,1363.55 620.5,1366C 615.771,1366.27 611.104,1366.94 606.5,1368C 603.833,1369.67 603.833,1371.33 606.5,1373C 602.167,1373.33 597.833,1373.67 593.5,1374C 591.342,1375.31 591.009,1376.98 592.5,1379C 588.833,1379.33 585.167,1379.67 581.5,1380C 578.367,1380.91 577.367,1382.74 578.5,1385.5C 573.818,1386.22 569.151,1386.88 564.5,1387.5C 562.027,1389.1 562.027,1390.6 564.5,1392C 560.833,1392.33 557.167,1392.67 553.5,1393C 549.87,1393.27 548.87,1394.94 550.5,1398C 546.082,1398.21 541.749,1398.87 537.5,1400C 534.833,1401.67 534.833,1403.33 537.5,1405C 532.718,1405.12 528.051,1405.79 523.5,1407C 522.075,1408.71 522.408,1410.05 524.5,1411C 519.416,1411.17 514.416,1411.84 509.5,1413C 508.167,1414.33 508.167,1415.67 509.5,1417C 505.558,1417.99 501.558,1418.66 497.5,1419C 496.167,1420.67 496.167,1422.33 497.5,1424C 493.167,1424.33 488.833,1424.67 484.5,1425C 482.473,1426.4 482.14,1428.06 483.5,1430C 479.082,1430.21 474.749,1430.87 470.5,1432C 469.253,1433.46 469.253,1434.96 470.5,1436.5C 466.541,1437.33 462.541,1437.83 458.5,1438C 456.219,1439.85 456.219,1441.52 458.5,1443C 454.167,1443.33 449.833,1443.67 445.5,1444C 443.473,1445.4 443.14,1447.06 444.5,1449C 440.469,1449.48 436.469,1450.15 432.5,1451C 429.833,1452.67 429.833,1454.33 432.5,1456C 428.167,1456.33 423.833,1456.67 419.5,1457C 417.473,1458.4 417.14,1460.06 418.5,1462C 414.778,1462.24 411.111,1462.74 407.5,1463.5C 406.548,1465.05 406.215,1466.71 406.5,1468.5C 402.837,1468.95 399.17,1469.45 395.5,1470C 394.594,1471.7 394.261,1473.53 394.5,1475.5C 391.482,1475.34 388.482,1475.5 385.5,1476C 383.473,1477.4 383.14,1479.06 384.5,1481C 380.778,1481.24 377.111,1481.74 373.5,1482.5C 371.73,1483.82 371.397,1485.32 372.5,1487C 369.553,1487.11 368.22,1488.61 368.5,1491.5C 363.167,1491.5 357.833,1491.5 352.5,1491.5C 352.5,1486.17 352.5,1480.83 352.5,1475.5C 358.07,1476.99 361.07,1474.99 361.5,1469.5C 364.941,1469.7 368.274,1469.2 371.5,1468C 372.167,1466.33 372.833,1464.67 373.5,1463C 376.553,1462.82 379.553,1462.32 382.5,1461.5C 383.747,1459.96 383.747,1458.46 382.5,1457C 385.89,1456.75 389.223,1456.25 392.5,1455.5C 393.452,1453.95 393.785,1452.29 393.5,1450.5C 396.522,1450.2 399.522,1449.7 402.5,1449C 403.833,1447.33 403.833,1445.67 402.5,1444C 405.833,1443.67 409.167,1443.33 412.5,1443C 413.406,1441.3 413.739,1439.47 413.5,1437.5C 416.32,1437.75 418.986,1437.25 421.5,1436C 422.747,1434.54 422.747,1433.04 421.5,1431.5C 424.447,1430.68 427.447,1430.18 430.5,1430C 431.833,1428.33 431.833,1426.67 430.5,1425C 433.167,1424.67 435.833,1424.33 438.5,1424C 439.406,1422.3 439.739,1420.47 439.5,1418.5C 445.472,1419.69 447.805,1417.52 446.5,1412C 449.289,1411.76 451.956,1411.09 454.5,1410C 455.833,1408.67 455.833,1407.33 454.5,1406C 457.513,1405.5 460.513,1405 463.5,1404.5C 463.34,1402.8 463.506,1401.13 464,1399.5C 466.147,1398.89 468.314,1398.22 470.5,1397.5C 471.833,1396.17 471.833,1394.83 470.5,1393.5C 472.766,1392.69 475.1,1392.19 477.5,1392C 478.406,1390.3 478.739,1388.47 478.5,1386.5C 483.675,1387.33 485.675,1385.33 484.5,1380.5C 486.423,1379.69 488.423,1379.19 490.5,1379C 492.014,1377.56 492.347,1376.06 491.5,1374.5C 493.917,1373.93 496.084,1372.93 498,1371.5C 498.684,1370.22 498.517,1369.05 497.5,1368C 502.794,1368.21 505.127,1365.71 504.5,1360.5C 509.479,1361.35 511.479,1359.52 510.5,1355C 515.412,1355.43 517.412,1353.43 516.5,1349C 518.5,1348.17 520.5,1347.33 522.5,1346.5C 523.833,1345.17 523.833,1343.83 522.5,1342.5C 524.396,1341.53 526.396,1341.2 528.5,1341.5C 529.052,1339.67 529.052,1338 528.5,1336.5C 533.986,1336.14 535.986,1333.48 534.5,1328.5C 539.667,1329.51 541.334,1327.67 539.5,1323C 541.475,1322.02 543.142,1320.69 544.5,1319C 544.355,1318.23 544.022,1317.56 543.5,1317C 544.793,1316.51 546.127,1316.34 547.5,1316.5C 547.993,1314.19 548.326,1311.86 548.5,1309.5C 550.167,1309.5 551.833,1309.5 553.5,1309.5C 553.336,1306.81 553.503,1304.15 554,1301.5C 555.333,1302.83 556.667,1302.83 558,1301.5C 559.357,1297.93 560.19,1294.27 560.5,1290.5C 562.288,1290.79 563.955,1290.45 565.5,1289.5C 565.739,1286.02 566.239,1282.36 567,1278.5C 568.699,1277.59 570.533,1277.26 572.5,1277.5C 572.334,1273.15 572.501,1268.82 573,1264.5C 575.022,1265.99 576.688,1265.66 578,1263.5C 579.22,1257.84 579.72,1252.18 579.5,1246.5C 582.532,1246.82 584.199,1245.49 584.5,1242.5C 585.207,1236.19 585.707,1229.85 586,1223.5C 589.351,1226.04 591.185,1225.04 591.5,1220.5C 590.127,1220.66 588.793,1220.49 587.5,1220C 588.833,1218.33 588.833,1216.67 587.5,1215C 584.956,1213.91 582.289,1213.24 579.5,1213C 580.86,1211.06 580.527,1209.4 578.5,1208C 576.423,1207.81 574.423,1207.31 572.5,1206.5C 573.833,1205.17 573.833,1203.83 572.5,1202.5C 570.257,1201.53 567.924,1201.19 565.5,1201.5C 565.739,1199.53 565.406,1197.7 564.5,1196C 562.122,1195.49 559.788,1194.82 557.5,1194C 558.833,1192.67 558.833,1191.33 557.5,1190C 554.899,1189.08 552.232,1188.41 549.5,1188C 551.007,1187.16 551.507,1186 551,1184.5C 548.932,1182.44 546.432,1181.27 543.5,1181C 544.705,1178.77 544.039,1177.1 541.5,1176C 539.833,1175.67 538.167,1175.33 536.5,1175C 538.007,1174.16 538.507,1173 538,1171.5C 535.948,1170.28 533.781,1169.28 531.5,1168.5C 531.833,1167.83 532.167,1167.17 532.5,1166.5C 530.717,1164.77 528.717,1163.27 526.5,1162C 527.833,1160.67 527.833,1159.33 526.5,1158C 524.392,1157.64 522.392,1156.97 520.5,1156C 522.334,1151.33 520.667,1149.49 515.5,1150.5C 516.906,1145.07 514.906,1142.74 509.5,1143.5C 509.5,1141.5 509.5,1139.5 509.5,1137.5C 507.5,1137.5 505.5,1137.5 503.5,1137.5C 504.274,1133.76 502.941,1131.26 499.5,1130C 500.022,1129.44 500.355,1128.77 500.5,1128C 499.048,1126.44 497.381,1125.1 495.5,1124C 496.747,1122.54 496.747,1121.04 495.5,1119.5C 493.647,1118.24 491.814,1118.24 490,1119.5C 490.374,1117.23 490.374,1114.9 490,1112.5C 488.301,1111.59 486.467,1111.26 484.5,1111.5C 484.048,1107.84 483.548,1104.17 483,1100.5C 481.333,1099.83 479.667,1099.17 478,1098.5C 476.597,1094.75 475.764,1091.08 475.5,1087.5C 473.653,1086.17 472.153,1086.5 471,1088.5C 470.944,1085.73 470.778,1083.07 470.5,1080.5C 469.271,1079.72 467.938,1079.22 466.5,1079C 467.711,1078.11 467.711,1077.27 466.5,1076.5C 465.808,1077.03 465.308,1077.69 465,1078.5C 464.427,1072.77 463.594,1067.1 462.5,1061.5C 461.07,1061.42 459.736,1061.75 458.5,1062.5C 458.546,1058.26 458.046,1053.93 457,1049.5C 455.295,1048.24 453.628,1047.9 452,1048.5C 451.639,1042.4 450.805,1036.4 449.5,1030.5C 447.876,1030.36 446.71,1031.03 446,1032.5C 445.747,1025.12 445.081,1017.79 444,1010.5C 441.978,1009.01 440.312,1009.34 439,1011.5C 438.816,1002.12 438.15,992.791 437,983.5C 436.085,982.672 435.419,981.672 435,980.5C 434.692,981.308 434.192,981.975 433.5,982.5C 432.333,949.838 432.167,917.172 433,884.5C 434.566,885.061 435.899,884.394 437,882.5C 438.15,873.209 438.816,863.876 439,854.5C 439.249,855.624 439.749,856.624 440.5,857.5C 441.736,856.754 443.07,856.421 444.5,856.5C 445.11,848.514 445.61,840.514 446,832.5C 447.941,836.554 448.775,836.22 448.5,831.5C 449.5,831.5 450.5,831.5 451.5,831.5C 451.334,826.821 451.501,822.155 452,817.5C 456.492,819.003 457.992,817.503 456.5,813C 458.613,810.402 459.113,807.569 458,804.5C 459.008,804.018 460.175,803.852 461.5,804C 462.833,802.667 462.833,801.333 461.5,800C 462.448,799.517 463.448,799.351 464.5,799.5C 464.5,795.5 464.5,791.5 464.5,787.5C 466.827,787.335 468.993,786.669 471,785.5C 470.747,782.867 470.747,780.2 471,777.5C 472.049,779.107 473.549,779.773 475.5,779.5C 476.644,775.64 477.311,771.64 477.5,767.5C 479.288,767.785 480.955,767.452 482.5,766.5C 482.579,762.89 483.413,759.224 485,755.5C 486.699,754.594 488.533,754.261 490.5,754.5C 490.373,752.085 490.207,749.751 490,747.5C 494.547,749.303 496.547,747.637 496,742.5C 496.637,740.697 497.803,739.364 499.5,738.5C 499.167,737.833 498.833,737.167 498.5,736.5C 502.85,736.122 504.517,733.789 503.5,729.5C 508.906,730.265 510.906,727.931 509.5,722.5C 514.667,723.508 516.334,721.675 514.5,717C 515,716.5 515.5,716 516,715.5C 518.761,717.017 520.594,716.184 521.5,713C 520.549,712.282 520.383,711.449 521,710.5C 523.212,709.88 525.046,708.713 526.5,707C 526.265,706.127 525.931,705.293 525.5,704.5C 527.386,703.594 529.22,702.594 531,701.5C 531.507,700.004 531.007,698.837 529.5,698C 532.119,697.849 534.453,697.015 536.5,695.5C 537.731,694.349 537.731,693.183 536.5,692C 539.276,691.934 541.442,690.768 543,688.5C 543.492,687.451 543.326,686.451 542.5,685.5C 545.145,684.808 547.645,683.808 550,682.5C 550.684,681.216 550.517,680.049 549.5,679C 551.878,678.489 554.212,677.822 556.5,677C 557.406,675.301 557.739,673.467 557.5,671.5C 560.798,671.984 563.464,670.984 565.5,668.5C 565.023,667.522 564.357,666.689 563.5,666C 566.224,665.73 568.891,665.23 571.5,664.5C 572.452,662.955 572.785,661.288 572.5,659.5C 578.162,660.824 580.496,658.824 579.5,653.5C 581.766,652.686 584.1,652.186 586.5,652C 588.014,650.561 588.347,649.061 587.5,647.5C 590.419,646.686 593.252,645.686 596,644.5C 596.684,643.216 596.517,642.049 595.5,641C 598.101,640.08 600.768,639.413 603.5,639C 605.525,637.806 605.859,636.306 604.5,634.5C 606.766,633.686 609.1,633.186 611.5,633C 613.527,631.604 613.86,629.938 612.5,628C 615.956,627.82 619.289,627.153 622.5,626C 623.406,624.301 623.739,622.467 623.5,620.5C 626.187,620.664 628.854,620.497 631.5,620C 633.527,618.604 633.86,616.938 632.5,615C 635.5,614.667 638.5,614.333 641.5,614C 643.527,612.604 643.86,610.938 642.5,609C 645.914,608.703 649.247,608.036 652.5,607C 655.167,605.333 655.167,603.667 652.5,602C 655.833,601.667 659.167,601.333 662.5,601C 665.346,600.121 666.013,598.454 664.5,596C 667.833,595.667 671.167,595.333 674.5,595C 677.346,594.121 678.013,592.454 676.5,590C 680.114,589.055 683.781,588.388 687.5,588C 690.167,586.333 690.167,584.667 687.5,583C 691.833,582.667 696.167,582.333 700.5,582C 703.346,581.121 704.013,579.454 702.5,577C 706.918,576.792 711.251,576.126 715.5,575C 718.167,573.333 718.167,571.667 715.5,570C 720.5,569.667 725.5,569.333 730.5,569C 733.167,567.333 733.167,565.667 730.5,564C 735.167,563.667 739.833,563.333 744.5,563C 747.346,562.121 748.013,560.454 746.5,558C 752.216,557.718 757.883,557.052 763.5,556C 764.833,554.333 764.833,552.667 763.5,551C 769.167,550.667 774.833,550.333 780.5,550C 783.915,548.857 784.249,547.19 781.5,545C 788.23,544.83 794.897,544.163 801.5,543C 802.833,541.667 802.833,540.333 801.5,539C 802.167,538.667 802.833,538.333 803.5,538C 810.5,537.667 817.5,537.333 824.5,537C 827.003,535.216 827.003,533.549 824.5,532C 831.5,531.667 838.5,531.333 845.5,531C 847.779,530.527 849.779,529.527 851.5,528C 850.377,526.956 849.044,526.29 847.5,526C 858.209,525.845 868.875,525.178 879.5,524C 884.181,522.999 884.515,521.333 880.5,519C 891.167,518.667 901.833,518.333 912.5,518C 914.974,517.887 916.974,516.887 918.5,515C 917.377,513.956 916.044,513.29 914.5,513C 925.828,512.5 937.162,512.333 948.5,512.5C 948.5,511.5 948.5,510.5 948.5,509.5 Z M 1024.5,550.5 C 1016.31,551.258 1007.98,552.091 999.5,553C 998.5,553.333 997.5,553.667 996.5,554C 999.3,555.232 1002.3,555.899 1005.5,556C 982.169,556.739 958.835,557.405 935.5,558C 924.309,559.127 923.975,560.794 934.5,563C 920.833,563.333 907.167,563.667 893.5,564C 891.382,564.26 889.716,565.26 888.5,567C 889.328,567.915 890.328,568.581 891.5,569C 880.753,569.097 870.086,569.93 859.5,571.5C 859.421,572.93 859.754,574.264 860.5,575.5C 852.187,576.332 843.853,576.832 835.5,577C 832.085,578.143 831.751,579.81 834.5,582C 828.167,582.333 821.833,582.667 815.5,583C 813.668,583.748 812.001,584.748 810.5,586C 811.328,586.915 812.328,587.581 813.5,588C 806.115,588.199 798.782,588.865 791.5,590C 788.833,591.667 788.833,593.333 791.5,595C 786.167,595.333 780.833,595.667 775.5,596C 772.184,597.251 771.85,598.918 774.5,601C 769.167,601.333 763.833,601.667 758.5,602C 755.654,602.879 754.987,604.546 756.5,607C 751.488,607.871 746.488,608.704 741.5,609.5C 740.253,611.006 740.253,612.506 741.5,614C 736.833,614.333 732.167,614.667 727.5,615C 725.473,616.396 725.14,618.062 726.5,620C 722.294,620.261 718.127,620.761 714,621.5C 711.718,622.711 711.218,624.378 712.5,626.5C 708.878,627.325 705.211,627.825 701.5,628C 699.473,629.396 699.14,631.062 700.5,633C 696.445,633.232 692.445,633.732 688.5,634.5C 686.862,635.705 686.529,637.038 687.5,638.5C 683.303,638.969 679.47,640.303 676,642.5C 675.493,643.996 675.993,645.163 677.5,646C 673.833,646.333 670.167,646.667 666.5,647C 663.833,648.667 663.833,650.333 666.5,652C 663.167,652.333 659.833,652.667 656.5,653C 654.559,654.816 653.892,656.816 654.5,659C 651.443,659.256 648.443,659.756 645.5,660.5C 644.253,662.006 644.253,663.506 645.5,665C 642.833,665.333 640.167,665.667 637.5,666C 635.473,667.396 635.14,669.062 636.5,671C 634.167,671.333 631.833,671.667 629.5,672C 626.945,673.258 626.278,675.091 627.5,677.5C 624.893,678.318 622.226,678.818 619.5,679C 617.473,680.396 617.14,682.062 618.5,684C 616.167,684.333 613.833,684.667 611.5,685C 609.473,686.396 609.14,688.062 610.5,690C 608.5,690.333 606.5,690.667 604.5,691C 601.27,692.724 600.936,694.724 603.5,697C 600.429,697.147 597.596,697.98 595,699.5C 594.493,700.996 594.993,702.163 596.5,703C 592.647,703.17 589.314,704.504 586.5,707C 587.833,708 587.833,709 586.5,710C 584.833,710.333 583.167,710.667 581.5,711C 578.833,712.667 578.833,714.333 581.5,716C 579.122,716.511 576.788,717.178 574.5,718C 573.167,719.333 573.167,720.667 574.5,722C 571.78,722.797 569.28,723.963 567,725.5C 566.508,726.549 566.674,727.549 567.5,728.5C 565.821,729.782 563.987,730.782 562,731.5C 561.316,732.784 561.483,733.951 562.5,735C 559.966,735.516 557.8,736.683 556,738.5C 555.544,739.744 556.044,740.577 557.5,741C 553.028,741.417 551.028,743.917 551.5,748.5C 546.705,747.859 545.039,749.693 546.5,754C 541.115,753.687 539.115,756.187 540.5,761.5C 535.333,760.492 533.666,762.325 535.5,767C 533.299,768.684 532.633,770.684 533.5,773C 531.527,773.495 529.527,773.662 527.5,773.5C 526.862,775.46 526.862,777.293 527.5,779C 525.781,780.057 523.947,780.89 522,781.5C 521.452,785.17 520.952,788.837 520.5,792.5C 518.533,792.261 516.699,792.594 515,793.5C 514.626,795.898 514.626,798.231 515,800.5C 513.992,800.982 512.825,801.148 511.5,801C 510.167,802.333 510.167,803.667 511.5,805C 510.552,805.483 509.552,805.649 508.5,805.5C 508.665,809.182 508.499,812.848 508,816.5C 507.667,816.833 507.333,817.167 507,817.5C 506.751,816.376 506.251,815.376 505.5,814.5C 504.41,815.391 504.41,816.391 505.5,817.5C 503.838,818.327 502.505,819.493 501.5,821C 502.61,823.737 502.777,826.571 502,829.5C 500.103,831.016 497.936,831.683 495.5,831.5C 495.38,833.734 495.713,835.901 496.5,838C 495.839,840.464 495.339,842.964 495,845.5C 494,844.167 493,844.167 492,845.5C 490.101,852.353 489.101,859.353 489,866.5C 488.29,865.027 487.124,864.36 485.5,864.5C 483.862,877.74 483.029,891.073 483,904.5C 483.093,901.044 482.093,898.044 480,895.5C 475.812,918.778 475.478,942.111 479,965.5C 479.216,967.384 479.883,969.051 481,970.5C 481.667,967.833 482.333,965.167 483,962.5C 483.5,974.162 483.667,985.829 483.5,997.5C 485.262,997.357 486.929,997.691 488.5,998.5C 489.496,1004.46 489.829,1010.46 489.5,1016.5C 490.5,1016.5 491.5,1016.5 492.5,1016.5C 492.672,1020.97 493.506,1021.3 495,1017.5C 495.71,1023.27 496.043,1028.93 496,1034.5C 498,1035.17 500,1035.83 502,1036.5C 502.499,1040.49 502.666,1044.49 502.5,1048.5C 504.5,1048.5 506.5,1048.5 508.5,1048.5C 508.176,1052.55 508.509,1056.55 509.5,1060.5C 511.071,1061.31 512.738,1061.64 514.5,1061.5C 515.13,1065.28 515.463,1068.95 515.5,1072.5C 517.045,1073.45 518.712,1073.79 520.5,1073.5C 520.22,1076.27 520.887,1078.77 522.5,1081C 522.043,1081.41 521.709,1081.91 521.5,1082.5C 522.158,1086.03 523.992,1087.03 527,1085.5C 527.497,1087.81 527.663,1090.14 527.5,1092.5C 532.367,1091.53 534.534,1093.53 534,1098.5C 534.75,1099.13 535.584,1099.63 536.5,1100C 534.991,1103.67 536.324,1105.17 540.5,1104.5C 540.5,1106.83 540.5,1109.17 540.5,1111.5C 542.75,1111.18 544.75,1111.68 546.5,1113C 545.862,1114.71 545.862,1116.54 546.5,1118.5C 548.604,1118.2 550.604,1118.53 552.5,1119.5C 551.948,1121 551.948,1122.67 552.5,1124.5C 554.604,1124.2 556.604,1124.53 558.5,1125.5C 557.36,1130.2 559.36,1132.37 564.5,1132C 563.978,1132.56 563.645,1133.23 563.5,1134C 564.82,1136.89 567.154,1138.23 570.5,1138C 569.572,1138.39 568.905,1139.05 568.5,1140C 569.954,1142.73 572.288,1143.89 575.5,1143.5C 574.908,1148.57 577.242,1151.07 582.5,1151C 581.167,1152.33 581.167,1153.67 582.5,1155C 584.804,1155.9 587.138,1156.73 589.5,1157.5C 589.167,1158.17 588.833,1158.83 588.5,1159.5C 590.395,1162.28 593.061,1163.78 596.5,1164C 596.043,1164.41 595.709,1164.91 595.5,1165.5C 596.888,1169.09 599.555,1170.43 603.5,1169.5C 603.261,1171.47 603.594,1173.3 604.5,1175C 606.833,1175.33 609.167,1175.67 611.5,1176C 610.167,1177.67 610.167,1179.33 611.5,1181C 613.841,1182.4 616.174,1182.9 618.5,1182.5C 619.711,1183.27 619.711,1184.11 618.5,1185C 618.998,1186.16 619.831,1186.99 621,1187.5C 623.795,1188.19 626.628,1188.69 629.5,1189C 628.167,1190.67 628.167,1192.33 629.5,1194C 632.334,1194.05 634.834,1194.88 637,1196.5C 637.345,1210.54 636.845,1222.54 635.5,1232.5C 634.167,1232.5 632.833,1232.5 631.5,1232.5C 630.094,1240.67 629.094,1249.01 628.5,1257.5C 626.941,1258.07 625.441,1258.74 624,1259.5C 623.667,1265.17 623.333,1270.83 623,1276.5C 621.301,1277.41 619.467,1277.74 617.5,1277.5C 617.665,1281.18 617.499,1284.85 617,1288.5C 615,1289.83 613,1291.17 611,1292.5C 610.667,1295.83 610.333,1299.17 610,1302.5C 608.333,1303.17 606.667,1303.83 605,1304.5C 604.452,1308.17 603.952,1311.84 603.5,1315.5C 598.094,1314.74 596.094,1317.07 597.5,1322.5C 600.85,1322.67 604.183,1322.5 607.5,1322C 610.035,1321.07 611.035,1319.24 610.5,1316.5C 614.877,1316.42 619.21,1315.92 623.5,1315C 624.833,1313.33 624.833,1311.67 623.5,1310C 627.833,1309.67 632.167,1309.33 636.5,1309C 639.816,1307.75 640.15,1306.08 637.5,1304C 641.833,1303.67 646.167,1303.33 650.5,1303C 651.766,1302.69 652.933,1302.19 654,1301.5C 654.034,1299.82 654.201,1298.32 654.5,1297C 658.887,1296.77 663.221,1296.27 667.5,1295.5C 668.747,1293.99 668.747,1292.49 667.5,1291C 672.5,1290.67 677.5,1290.33 682.5,1290C 685.346,1289.12 686.013,1287.45 684.5,1285C 689.229,1284.73 693.896,1284.06 698.5,1283C 699.833,1281.33 699.833,1279.67 698.5,1278C 703.833,1277.67 709.167,1277.33 714.5,1277C 717.915,1275.86 718.249,1274.19 715.5,1272C 720.916,1271.84 726.25,1271.17 731.5,1270C 732.833,1268.67 732.833,1267.33 731.5,1266C 736.563,1265.75 741.563,1265.09 746.5,1264C 750.5,1262.33 750.5,1260.67 746.5,1259C 751.167,1258.33 755.833,1258.33 760.5,1259C 755.167,1260.67 755.167,1262.33 760.5,1264C 765.416,1265.16 770.416,1265.83 775.5,1266C 772.833,1267.33 772.833,1268.67 775.5,1270C 781.419,1271.2 787.419,1271.86 793.5,1272C 790.716,1274.78 791.383,1276.45 795.5,1277C 802.167,1277.33 808.833,1277.67 815.5,1278C 812.833,1279.67 812.833,1281.33 815.5,1283C 822.115,1284.11 828.782,1284.77 835.5,1285C 833.87,1288.06 834.87,1289.73 838.5,1290C 847.5,1290.33 856.5,1290.67 865.5,1291C 861.67,1291.41 861.003,1292.74 863.5,1295C 873.112,1296.09 882.778,1296.92 892.5,1297.5C 891.651,1301.17 893.318,1303 897.5,1303C 911.167,1303.33 924.833,1303.67 938.5,1304C 936.167,1304.33 933.833,1304.67 931.5,1305C 931.043,1305.41 930.709,1305.91 930.5,1306.5C 934.711,1307.9 939.044,1308.74 943.5,1309C 969.167,1309.33 994.833,1309.67 1020.5,1310C 1015.98,1310.32 1011.48,1310.82 1007,1311.5C 1004.13,1312 1003.96,1312.67 1006.5,1313.5C 1030.5,1316.13 1054.5,1316.13 1078.5,1313.5C 1079.17,1313.17 1079.83,1312.83 1080.5,1312.5C 1074.96,1310.95 1069.29,1310.12 1063.5,1310C 1089.17,1309.67 1114.83,1309.33 1140.5,1309C 1144.92,1308.79 1149.25,1308.13 1153.5,1307C 1153.83,1306.67 1154.17,1306.33 1154.5,1306C 1151.96,1304.91 1149.29,1304.24 1146.5,1304C 1159.83,1303.67 1173.17,1303.33 1186.5,1303C 1189.18,1302.75 1191.51,1301.75 1193.5,1300C 1192.64,1299.31 1191.98,1298.48 1191.5,1297.5C 1200.15,1296.67 1208.81,1296.17 1217.5,1296C 1219.62,1295.9 1221.29,1295.07 1222.5,1293.5C 1221.91,1292.2 1220.91,1291.37 1219.5,1291C 1228.5,1290.67 1237.5,1290.33 1246.5,1290C 1250.04,1288.93 1250.71,1287.26 1248.5,1285C 1253.83,1284.67 1259.17,1284.33 1264.5,1284C 1266.61,1283.64 1268.61,1282.97 1270.5,1282C 1271.73,1280.41 1271.39,1279.08 1269.5,1278C 1276.17,1277.67 1282.83,1277.33 1289.5,1277C 1293.62,1276.45 1294.28,1274.78 1291.5,1272C 1296.5,1271.67 1301.5,1271.33 1306.5,1271C 1310.13,1270.73 1311.13,1269.06 1309.5,1266C 1314.87,1265.6 1320.2,1264.93 1325.5,1264C 1328.17,1262.33 1328.17,1260.67 1325.5,1259C 1330.7,1258.76 1335.87,1258.26 1341,1257.5C 1343.78,1256.11 1343.95,1254.61 1341.5,1253C 1346.56,1252.75 1351.56,1252.09 1356.5,1251C 1357.17,1249.25 1357.51,1247.58 1357.5,1246C 1361.5,1245.67 1365.5,1245.33 1369.5,1245C 1372.17,1243.33 1372.17,1241.67 1369.5,1240C 1373.17,1239.67 1376.83,1239.33 1380.5,1239C 1383.35,1238.12 1384.01,1236.45 1382.5,1234C 1386.37,1233.73 1390.21,1233.23 1394,1232.5C 1396.28,1231.29 1396.78,1229.62 1395.5,1227.5C 1398.78,1226.68 1402.12,1226.18 1405.5,1226C 1407.53,1224.6 1407.86,1222.94 1406.5,1221C 1410.29,1220.84 1413.95,1220.17 1417.5,1219C 1418.83,1217.67 1418.83,1216.33 1417.5,1215C 1421.05,1214.22 1424.55,1213.38 1428,1212.5C 1428.72,1210.89 1428.55,1209.39 1427.5,1208C 1430.5,1207.67 1433.5,1207.33 1436.5,1207C 1438.66,1205.69 1438.99,1204.02 1437.5,1202C 1440.56,1201.74 1443.56,1201.24 1446.5,1200.5C 1447.47,1198.6 1447.8,1196.6 1447.5,1194.5C 1449.86,1194.66 1452.19,1194.5 1454.5,1194C 1456.66,1192.69 1456.99,1191.02 1455.5,1189C 1458.56,1188.74 1461.56,1188.24 1464.5,1187.5C 1465.45,1185.95 1465.79,1184.29 1465.5,1182.5C 1467.53,1182.66 1469.53,1182.5 1471.5,1182C 1473.62,1180.48 1473.95,1178.64 1472.5,1176.5C 1474.77,1175.69 1477.1,1175.19 1479.5,1175C 1481.53,1173.6 1481.86,1171.94 1480.5,1170C 1482.95,1169.71 1485.29,1169.04 1487.5,1168C 1489.39,1166.92 1489.73,1165.59 1488.5,1164C 1490.79,1163.18 1493.12,1162.51 1495.5,1162C 1496.83,1160.33 1496.83,1158.67 1495.5,1157C 1497.5,1156.67 1499.5,1156.33 1501.5,1156C 1503.53,1154.6 1503.86,1152.94 1502.5,1151C 1504.56,1150.69 1506.56,1150.19 1508.5,1149.5C 1510.4,1148.06 1510.73,1146.4 1509.5,1144.5C 1511.69,1143.78 1513.85,1143.11 1516,1142.5C 1516.72,1140.89 1516.55,1139.39 1515.5,1138C 1517.5,1137.33 1519.5,1136.67 1521.5,1136C 1522.83,1134.67 1522.83,1133.33 1521.5,1132C 1523.79,1131.05 1525.95,1129.89 1528,1128.5C 1528.49,1127.45 1528.33,1126.45 1527.5,1125.5C 1528.91,1124.38 1530.41,1123.38 1532,1122.5C 1532.68,1121.22 1532.52,1120.05 1531.5,1119C 1535.94,1118.92 1537.61,1116.92 1536.5,1113C 1538.63,1112.46 1540.63,1111.62 1542.5,1110.5C 1543.83,1109.17 1543.83,1107.83 1542.5,1106.5C 1547.86,1106.42 1549.86,1103.75 1548.5,1098.5C 1550.14,1098.71 1551.64,1098.38 1553,1097.5C 1554.36,1093.93 1555.19,1090.27 1555.5,1086.5C 1557.5,1086.5 1559.5,1086.5 1561.5,1086.5C 1561.5,1083.5 1561.5,1080.5 1561.5,1077.5C 1563.94,1077.65 1564.61,1076.81 1563.5,1075C 1564.89,1073.98 1566.39,1073.15 1568,1072.5C 1568.31,1070.44 1568.31,1068.44 1568,1066.5C 1569.67,1067.83 1571.33,1067.83 1573,1066.5C 1573.83,1062.53 1574.33,1058.53 1574.5,1054.5C 1576.14,1054.71 1577.64,1054.38 1579,1053.5C 1579.96,1048.88 1580.62,1044.21 1581,1039.5C 1582.05,1041.11 1583.55,1041.77 1585.5,1041.5C 1585.97,1035.84 1586.47,1030.17 1587,1024.5C 1588.44,1022.84 1590.28,1022.18 1592.5,1022.5C 1593,1016.51 1593.5,1010.51 1594,1004.5C 1596,1004 1597.66,1003 1599,1001.5C 1599.33,993.167 1599.67,984.833 1600,976.5C 1601.08,978.394 1602.41,978.727 1604,977.5C 1605.09,962.697 1605.59,947.864 1605.5,933C 1605.6,918.466 1605.1,903.966 1604,889.5C 1602.29,888.075 1600.95,888.408 1600,890.5C 1599.67,881.833 1599.33,873.167 1599,864.5C 1597.56,862.845 1595.72,862.178 1593.5,862.5C 1593.44,856.149 1593.11,849.815 1592.5,843.5C 1590.23,843.859 1588.4,843.192 1587,841.5C 1586.67,836.5 1586.33,831.5 1586,826.5C 1584.69,824.342 1583.02,824.009 1581,825.5C 1580.26,821.187 1579.76,816.853 1579.5,812.5C 1578.07,812.579 1576.74,812.246 1575.5,811.5C 1574.18,807.607 1573.52,803.607 1573.5,799.5C 1571.53,799.261 1569.7,799.594 1568,800.5C 1567.5,798.965 1567.67,797.465 1568.5,796C 1566.8,793.769 1565.8,791.269 1565.5,788.5C 1564.17,788.5 1562.83,788.5 1561.5,788.5C 1561.5,785.833 1561.5,783.167 1561.5,780.5C 1559.53,780.739 1557.7,780.406 1556,779.5C 1555.85,776.881 1555.02,774.547 1553.5,772.5C 1553.71,771.914 1554.04,771.414 1554.5,771C 1553.41,768.451 1551.74,767.617 1549.5,768.5C 1548.53,766.257 1548.19,763.924 1548.5,761.5C 1546.8,761.66 1545.13,761.494 1543.5,761C 1543.59,759.284 1543.26,757.451 1542.5,755.5C 1540.58,754.692 1538.58,754.192 1536.5,754C 1537.99,750.334 1536.66,748.334 1532.5,748C 1533.38,746.644 1533.71,745.144 1533.5,743.5C 1531.61,743.703 1530.11,743.037 1529,741.5C 1529.2,736.886 1527.03,734.886 1522.5,735.5C 1523.5,730.5 1521.5,728.5 1516.5,729.5C 1517.81,723.638 1515.47,721.138 1509.5,722C 1510.75,720.542 1510.75,719.042 1509.5,717.5C 1507.6,716.534 1505.6,716.201 1503.5,716.5C 1504.47,711.633 1502.47,709.466 1497.5,710C 1497.06,708.467 1496.72,706.967 1496.5,705.5C 1493.86,704.604 1491.19,703.771 1488.5,703C 1490.97,701.598 1490.97,700.098 1488.5,698.5C 1485.89,697.77 1483.22,697.27 1480.5,697C 1481.36,696.311 1482.02,695.478 1482.5,694.5C 1480.39,691.279 1477.39,689.945 1473.5,690.5C 1473.66,688.801 1473.49,687.134 1473,685.5C 1470.53,684.88 1468.03,684.214 1465.5,683.5C 1466.83,682.167 1466.83,680.833 1465.5,679.5C 1462.55,678.679 1459.55,678.179 1456.5,678C 1457.83,676.333 1457.83,674.667 1456.5,673C 1453.58,672.012 1450.58,671.346 1447.5,671C 1448.86,669.062 1448.53,667.396 1446.5,666C 1443.83,665.667 1441.17,665.333 1438.5,665C 1439.75,663.506 1439.75,662.006 1438.5,660.5C 1435.56,659.756 1432.56,659.256 1429.5,659C 1430.11,656.816 1429.44,654.816 1427.5,653C 1424.17,652.667 1420.83,652.333 1417.5,652C 1419.59,651.047 1419.93,649.714 1418.5,648C 1414.62,646.81 1410.62,646.143 1406.5,646C 1408.01,645.163 1408.51,643.996 1408,642.5C 1404.47,640.487 1400.64,639.153 1396.5,638.5C 1397.47,637.038 1397.14,635.705 1395.5,634.5C 1391.22,633.726 1386.89,633.226 1382.5,633C 1385.17,631.333 1385.17,629.667 1382.5,628C 1378.79,627.825 1375.12,627.325 1371.5,626.5C 1372.71,624.149 1372.05,622.316 1369.5,621C 1365.46,620.827 1361.46,620.327 1357.5,619.5C 1358.93,617.191 1358.27,615.691 1355.5,615C 1351.17,614.667 1346.83,614.333 1342.5,614C 1343.75,612.506 1343.75,611.006 1342.5,609.5C 1337.51,608.704 1332.51,607.871 1327.5,607C 1330.17,605.667 1330.17,604.333 1327.5,603C 1321.58,601.804 1315.58,601.138 1309.5,601C 1312.25,598.81 1311.92,597.143 1308.5,596C 1303.17,595.667 1297.83,595.333 1292.5,595C 1294.78,593.149 1294.78,591.482 1292.5,590C 1285.55,588.878 1278.55,588.211 1271.5,588C 1272.17,587.333 1272.83,586.667 1273.5,586C 1272.28,584.26 1270.62,583.26 1268.5,583C 1262.17,582.667 1255.83,582.333 1249.5,582C 1252.25,579.81 1251.92,578.143 1248.5,577C 1240.17,576.667 1231.83,576.333 1223.5,576C 1223.17,575.667 1222.83,575.333 1222.5,575C 1225.02,573.314 1224.69,571.981 1221.5,571C 1211.88,569.807 1202.22,569.141 1192.5,569C 1193.91,568.632 1194.91,567.799 1195.5,566.5C 1194.09,565.194 1192.42,564.36 1190.5,564C 1177.17,563.667 1163.83,563.333 1150.5,563C 1153.36,562.73 1156.03,561.896 1158.5,560.5C 1155.04,558.938 1151.37,558.105 1147.5,558C 1124.83,557.407 1102.16,556.741 1079.5,556C 1082.37,555.882 1085.04,555.216 1087.5,554C 1084.25,552.964 1080.91,552.297 1077.5,552C 1059.85,550.873 1042.18,550.373 1024.5,550.5 Z M 592.5,1323.5 C 591.847,1324.81 591.18,1326.14 590.5,1327.5C 594.839,1329.57 596.839,1328.24 596.5,1323.5C 595.167,1323.5 593.833,1323.5 592.5,1323.5 Z"/></g>
</svg>
