<?xml version="1.0" encoding="UTF-8"?>
<!DOCTYPE svg PUBLIC "-//W3C//DTD SVG 1.1//EN" "http://www.w3.org/Graphics/SVG/1.1/DTD/svg11.dtd">
<svg xmlns="http://www.w3.org/2000/svg" version="1.1" width="2000px" height="2000px" style="shape-rendering:geometricPrecision; text-rendering:geometricPrecision; image-rendering:optimizeQuality; fill-rule:evenodd; clip-rule:evenodd" xmlns:xlink="http://www.w3.org/1999/xlink">
<g><path style="opacity:0.854" fill="#babbba" d="M 957.5,48.5 C 1189.71,40.8573 1397.71,107.024 1581.5,247C 1765.53,393.089 1881.37,581.923 1929,813.5C 1969.64,1035.99 1936.97,1246.99 1831,1446.5C 1714.57,1653.58 1545.07,1799.08 1322.5,1883C 1141.28,1946.64 957.281,1955.98 770.5,1911C 540.526,1850.22 357.359,1723.05 221,1529.5C 82.6947,1322.7 31.0281,1095.7 66,848.5C 105.758,611.7 216.924,416.534 399.5,263C 561.873,131.682 747.873,60.182 957.5,48.5 Z M 995.5,55.5 C 1245.56,58.0842 1461.9,143.584 1644.5,312C 1809.96,471.77 1906.13,666.603 1933,896.5C 1956.31,1161.18 1883.98,1395.52 1716,1599.5C 1552.77,1787.72 1346.6,1896.55 1097.5,1926C 832.812,1949.31 598.478,1876.98 394.5,1709C 206.278,1545.77 97.4451,1339.6 68,1090.5C 45.4537,839.219 110.454,613.885 263,414.5C 410.213,230.873 600.046,116.373 832.5,71C 886.577,61.4676 940.91,56.301 995.5,55.5 Z M 717.5,589.5 C 743.169,589.333 768.835,589.5 794.5,590C 797.008,590.115 799.008,591.115 800.5,593C 800.241,594.261 799.574,595.261 798.5,596C 805.5,596.333 812.5,596.667 819.5,597C 822.346,597.879 823.013,599.546 821.5,602C 827.551,602.26 833.551,602.927 839.5,604C 840.991,606.022 840.658,607.688 838.5,609C 842.833,609.333 847.167,609.667 851.5,610C 853.527,611.396 853.86,613.062 852.5,615C 856.584,615.231 860.584,615.898 864.5,617C 865.833,618.667 865.833,620.333 864.5,622C 867.833,622.333 871.167,622.667 874.5,623C 876.014,624.439 876.347,625.939 875.5,627.5C 878.54,628.375 881.54,629.375 884.5,630.5C 885.747,632.006 885.747,633.506 884.5,635C 887.167,635.333 889.833,635.667 892.5,636C 894.441,637.816 895.108,639.816 894.5,642C 899.898,641.079 902.231,643.246 901.5,648.5C 907.334,647.337 910,649.671 909.5,655.5C 914.479,654.65 916.479,656.483 915.5,661C 918.613,660.947 921.113,662.114 923,664.5C 923.507,665.996 923.007,667.163 921.5,668C 926.898,667.079 929.231,669.246 928.5,674.5C 933.495,674.125 935.495,676.458 934.5,681.5C 939.214,680.565 941.214,682.232 940.5,686.5C 945.86,686.583 947.86,689.25 946.5,694.5C 951.754,693.769 953.921,696.102 953,701.5C 954.333,702.167 955.667,702.833 957,703.5C 957.684,704.784 957.517,705.951 956.5,707C 959.941,708.258 961.274,710.758 960.5,714.5C 965.894,713.554 967.561,715.554 965.5,720.5C 967.424,720.106 969.257,720.773 971,722.5C 971.852,726.189 972.685,729.856 973.5,733.5C 975.288,733.215 976.955,733.548 978.5,734.5C 979.021,736.861 979.354,739.194 979.5,741.5C 980.689,742.429 982.022,742.762 983.5,742.5C 983.67,743.822 983.337,744.989 982.5,746C 983.448,746.483 984.448,746.649 985.5,746.5C 986.248,748.584 986.248,750.584 985.5,752.5C 987.341,753.23 989.175,753.897 991,754.5C 992.015,758.44 992.515,762.44 992.5,766.5C 997.844,766.666 1003.18,766.499 1008.5,766C 1011.08,762.285 1012.08,758.118 1011.5,753.5C 1012.55,753.649 1013.55,753.483 1014.5,753C 1013.62,751.644 1013.29,750.144 1013.5,748.5C 1014.82,748.33 1015.99,748.663 1017,749.5C 1017.5,748.5 1018,747.5 1018.5,746.5C 1016.44,741.554 1018.11,739.554 1023.5,740.5C 1024.48,736.34 1025.14,732.34 1025.5,728.5C 1027.35,727.24 1029.19,727.24 1031,728.5C 1030.63,726.231 1030.63,723.898 1031,721.5C 1032.7,720.594 1034.53,720.261 1036.5,720.5C 1037.5,716.609 1038.34,712.609 1039,708.5C 1040.73,707.751 1042.57,707.251 1044.5,707C 1042.53,702.953 1043.86,700.953 1048.5,701C 1049.24,699.215 1049.91,697.382 1050.5,695.5C 1052.17,694.833 1053.83,694.167 1055.5,693.5C 1054.47,690.946 1055.31,688.946 1058,687.5C 1058.49,685.866 1058.66,684.199 1058.5,682.5C 1060.2,682.034 1061.7,682.034 1063,682.5C 1064.04,680.299 1064.88,677.966 1065.5,675.5C 1067.04,674.253 1068.54,674.253 1070,675.5C 1070.33,673.5 1070.67,671.5 1071,669.5C 1073.07,668.736 1075.24,668.236 1077.5,668C 1076.02,662.974 1078.02,660.807 1083.5,661.5C 1082.74,656.094 1085.07,654.094 1090.5,655.5C 1090.03,649.806 1092.7,647.306 1098.5,648C 1097.14,646.062 1097.47,644.396 1099.5,643C 1102.29,642.759 1104.96,642.092 1107.5,641C 1105.99,638.546 1106.65,636.879 1109.5,636C 1111.83,635.667 1114.17,635.333 1116.5,635C 1115.45,633.612 1115.28,632.112 1116,630.5C 1119.1,629.036 1122.27,628.203 1125.5,628C 1124.17,626.667 1124.17,625.333 1125.5,624C 1129.05,622.826 1132.71,622.16 1136.5,622C 1135.45,620.612 1135.28,619.112 1136,617.5C 1139.66,616.031 1143.49,615.031 1147.5,614.5C 1146.14,612.694 1146.47,611.194 1148.5,610C 1153.17,609.667 1157.83,609.333 1162.5,609C 1159.73,606.101 1160.4,604.101 1164.5,603C 1169.5,602.667 1174.5,602.333 1179.5,602C 1176.85,599.918 1177.18,598.251 1180.5,597C 1187.52,596.831 1194.52,596.331 1201.5,595.5C 1198.96,594.063 1198.96,592.563 1201.5,591C 1203.5,590.667 1205.5,590.333 1207.5,590C 1233.88,589.036 1260.22,589.37 1286.5,591C 1289,592.549 1289,594.216 1286.5,596C 1293.5,596.333 1300.5,596.667 1307.5,597C 1310.82,598.251 1311.15,599.918 1308.5,602C 1313.17,602.333 1317.83,602.667 1322.5,603C 1326.32,603.613 1327.32,605.613 1325.5,609C 1329.5,609.333 1333.5,609.667 1337.5,610C 1339.53,611.396 1339.86,613.062 1338.5,615C 1341.17,615.333 1343.83,615.667 1346.5,616C 1350.46,617.211 1351.13,619.211 1348.5,622C 1351.83,622.333 1355.17,622.667 1358.5,623C 1359.41,624.699 1359.74,626.533 1359.5,628.5C 1365.47,627.309 1367.8,629.476 1366.5,635C 1369.29,635.241 1371.96,635.908 1374.5,637C 1375.83,638.333 1375.83,639.667 1374.5,641C 1377.1,641.977 1379.6,643.144 1382,644.5C 1382.51,645.996 1382.01,647.163 1380.5,648C 1384.18,647.761 1386.85,649.261 1388.5,652.5C 1388.29,653.086 1387.96,653.586 1387.5,654C 1389.06,654.98 1390.73,655.813 1392.5,656.5C 1393.75,658.042 1393.75,659.542 1392.5,661C 1398.47,660.138 1400.81,662.638 1399.5,668.5C 1404.71,668.264 1406.54,670.597 1405,675.5C 1406.36,676.38 1407.86,676.714 1409.5,676.5C 1409.71,678.144 1409.38,679.644 1408.5,681C 1412.03,681.672 1413.36,683.838 1412.5,687.5C 1415.83,686.833 1417.83,688.167 1418.5,691.5C 1418.13,694.383 1418.13,697.383 1418.5,700.5C 1420.5,700.833 1422.5,701.167 1424.5,701.5C 1424.18,705.555 1424.51,709.555 1425.5,713.5C 1427.38,714.093 1429.22,714.76 1431,715.5C 1431.33,721.167 1431.67,726.833 1432,732.5C 1432.33,732.167 1432.67,731.833 1433,731.5C 1434.05,733.107 1435.55,733.773 1437.5,733.5C 1437.33,739.842 1437.5,746.175 1438,752.5C 1439.7,753.406 1441.53,753.739 1443.5,753.5C 1444.22,767.483 1444.72,781.483 1445,795.5C 1445.18,792.044 1445.85,788.711 1447,785.5C 1447.33,785.833 1447.67,786.167 1448,786.5C 1450.98,807.781 1451.31,829.115 1449,850.5C 1446.88,854.682 1445.55,854.348 1445,849.5C 1444.72,863.517 1444.22,877.517 1443.5,891.5C 1441.28,891.178 1439.44,891.845 1438,893.5C 1437.61,901.514 1437.11,909.514 1436.5,917.5C 1434.86,917.286 1433.36,917.62 1432,918.5C 1431.67,924.5 1431.33,930.5 1431,936.5C 1429,937.167 1427,937.833 1425,938.5C 1424.67,944.167 1424.33,949.833 1424,955.5C 1422.33,956.167 1420.67,956.833 1419,957.5C 1418.75,963.311 1417.75,968.977 1416,974.5C 1413.44,975.646 1412.11,974.646 1412,971.5C 1411.72,977.216 1411.05,982.883 1410,988.5C 1407.55,990.013 1405.88,989.346 1405,986.5C 1405.74,991.509 1405.41,996.509 1404,1001.5C 1402.3,1002.41 1400.47,1002.74 1398.5,1002.5C 1398.26,1006.84 1397.93,1011.18 1397.5,1015.5C 1395.53,1015.74 1393.7,1015.41 1392,1014.5C 1392.16,1016.81 1392.16,1019.14 1392,1021.5C 1390.84,1023.29 1390.17,1025.29 1390,1027.5C 1388.67,1028.83 1387.33,1028.83 1386,1027.5C 1385.5,1030.15 1385.34,1032.81 1385.5,1035.5C 1383.25,1035.18 1381.25,1035.68 1379.5,1037C 1380.28,1038.07 1380.11,1039.24 1379,1040.5C 1378.5,1043.15 1378.34,1045.81 1378.5,1048.5C 1376.4,1048.2 1374.4,1048.53 1372.5,1049.5C 1373.33,1051.98 1372.67,1054.14 1370.5,1056C 1371.95,1058.49 1371.28,1060.33 1368.5,1061.5C 1367.83,1061.17 1367.17,1060.83 1366.5,1060.5C 1365.52,1063.09 1365.19,1065.75 1365.5,1068.5C 1363.47,1068.34 1361.47,1068.5 1359.5,1069C 1360.4,1071.47 1359.74,1073.64 1357.5,1075.5C 1358.61,1079.46 1356.95,1081.13 1352.5,1080.5C 1352.5,1082.83 1352.5,1085.17 1352.5,1087.5C 1347.09,1086.74 1345.09,1089.07 1346.5,1094.5C 1344.8,1094.34 1343.13,1094.51 1341.5,1095C 1342.17,1095.67 1342.83,1096.33 1343.5,1097C 1341.6,1098.45 1339.93,1100.11 1338.5,1102C 1339.52,1103.05 1339.68,1104.22 1339,1105.5C 1337.17,1107.07 1335.01,1107.91 1332.5,1108C 1334.36,1112.75 1332.7,1114.92 1327.5,1114.5C 1328.5,1119.5 1326.5,1121.5 1321.5,1120.5C 1322.27,1124.18 1320.94,1126.68 1317.5,1128C 1318.52,1129.05 1318.68,1130.22 1318,1131.5C 1316.33,1132.17 1314.67,1132.83 1313,1133.5C 1314.15,1138.54 1311.98,1141.21 1306.5,1141.5C 1307.83,1142.83 1307.83,1144.17 1306.5,1145.5C 1304.38,1146.15 1302.38,1146.98 1300.5,1148C 1301.75,1149.46 1301.75,1150.96 1300.5,1152.5C 1298.5,1153.17 1296.5,1153.83 1294.5,1154.5C 1295.05,1156 1295.05,1157.67 1294.5,1159.5C 1289.97,1158.89 1287.8,1160.89 1288,1165.5C 1286.17,1166.1 1284.34,1166.77 1282.5,1167.5C 1283.71,1169.85 1283.05,1171.68 1280.5,1173C 1276.75,1172.96 1276.09,1173.96 1278.5,1176C 1276.5,1178 1274.16,1179.5 1271.5,1180.5C 1272.86,1182.31 1272.53,1183.81 1270.5,1185C 1268.75,1185.47 1267.09,1186.14 1265.5,1187C 1266.75,1188.49 1266.75,1189.99 1265.5,1191.5C 1263.56,1192.19 1261.56,1192.69 1259.5,1193C 1260.98,1197.74 1259.32,1199.74 1254.5,1199C 1255.11,1201.18 1254.44,1203.18 1252.5,1205C 1250.87,1205.49 1249.2,1205.66 1247.5,1205.5C 1248.13,1210.71 1245.79,1213.21 1240.5,1213C 1241.75,1214.46 1241.75,1215.96 1240.5,1217.5C 1238.6,1218.47 1236.6,1218.8 1234.5,1218.5C 1234.66,1220.53 1234.5,1222.53 1234,1224.5C 1231.85,1225.11 1229.69,1225.78 1227.5,1226.5C 1228.73,1228.4 1228.4,1230.06 1226.5,1231.5C 1224.96,1232.75 1223.46,1232.75 1222,1231.5C 1222.86,1237.47 1220.36,1239.81 1214.5,1238.5C 1215.35,1243.48 1213.52,1245.48 1209,1244.5C 1208.95,1246.74 1208.11,1248.91 1206.5,1251C 1204.42,1251.19 1202.42,1251.69 1200.5,1252.5C 1201.75,1254.04 1201.75,1255.54 1200.5,1257C 1198.05,1257.29 1195.71,1257.96 1193.5,1259C 1194.86,1260.94 1194.53,1262.6 1192.5,1264C 1190.1,1264.19 1187.77,1264.69 1185.5,1265.5C 1186.75,1267.04 1186.75,1268.54 1185.5,1270C 1183.21,1270.82 1180.88,1271.49 1178.5,1272C 1179.52,1273.05 1179.68,1274.22 1179,1275.5C 1177.17,1277.07 1175.01,1277.91 1172.5,1278C 1172.12,1283 1169.12,1285.33 1163.5,1285C 1164.83,1286.67 1164.83,1288.33 1163.5,1290C 1161.56,1290.81 1159.56,1291.31 1157.5,1291.5C 1157.66,1293.2 1157.49,1294.87 1157,1296.5C 1154.59,1297.27 1152.09,1297.77 1149.5,1298C 1150.55,1299.39 1150.72,1300.89 1150,1302.5C 1147.83,1304.12 1145.33,1304.95 1142.5,1305C 1143.75,1306.46 1143.75,1307.96 1142.5,1309.5C 1140.17,1310.17 1137.83,1310.83 1135.5,1311.5C 1136.95,1313.64 1136.62,1315.48 1134.5,1317C 1132.17,1317.33 1129.83,1317.67 1127.5,1318C 1128.75,1319.49 1128.75,1320.99 1127.5,1322.5C 1124.82,1323.07 1122.16,1323.74 1119.5,1324.5C 1120.86,1326.31 1120.53,1327.81 1118.5,1329C 1116.29,1330.04 1113.95,1330.71 1111.5,1331C 1112.75,1332.46 1112.75,1333.96 1111.5,1335.5C 1109.58,1336.31 1107.58,1336.81 1105.5,1337C 1105.85,1339.05 1105.18,1341.05 1103.5,1343C 1101.17,1343.33 1098.83,1343.67 1096.5,1344C 1097.83,1345.67 1097.83,1347.33 1096.5,1349C 1094.9,1349.27 1093.4,1349.77 1092,1350.5C 1091.67,1350.17 1091.33,1349.83 1091,1349.5C 1090.05,1351.79 1088.89,1353.95 1087.5,1356C 1084.83,1356.33 1082.17,1356.67 1079.5,1357C 1081.5,1358.15 1081.83,1359.65 1080.5,1361.5C 1078.02,1362.9 1075.35,1363.73 1072.5,1364C 1073.86,1365.94 1073.53,1367.6 1071.5,1369C 1069.1,1369.19 1066.77,1369.69 1064.5,1370.5C 1065.95,1372.64 1065.62,1374.48 1063.5,1376C 1061.53,1376.5 1059.53,1376.66 1057.5,1376.5C 1057.74,1378.47 1057.41,1380.3 1056.5,1382C 1053.77,1382.18 1051.11,1382.68 1048.5,1383.5C 1049.75,1385.04 1049.75,1386.54 1048.5,1388C 1045.53,1388.79 1042.53,1389.46 1039.5,1390C 1041.78,1391.48 1041.78,1393.15 1039.5,1395C 1037.1,1395.19 1034.77,1395.69 1032.5,1396.5C 1033.61,1398.5 1033.28,1400.33 1031.5,1402C 1029.19,1402.5 1026.86,1402.66 1024.5,1402.5C 1024.74,1404.47 1024.41,1406.3 1023.5,1408C 1020.77,1408.41 1018.1,1409.08 1015.5,1410C 1016.83,1411.33 1016.83,1412.67 1015.5,1414C 1012.5,1414.83 1009.5,1415.67 1006.5,1416.5C 1007.72,1418.91 1007.06,1420.74 1004.5,1422C 1000.79,1422.44 997.122,1422.11 993.5,1421C 992.167,1419.33 992.167,1417.67 993.5,1416C 990.833,1415.67 988.167,1415.33 985.5,1415C 984.594,1413.3 984.261,1411.47 984.5,1409.5C 982.146,1409.16 979.813,1408.66 977.5,1408C 976.167,1406.33 976.167,1404.67 977.5,1403C 974.424,1402.65 971.424,1401.99 968.5,1401C 967.826,1399.25 967.493,1397.58 967.5,1396C 965.167,1395.67 962.833,1395.33 960.5,1395C 959.594,1393.3 959.261,1391.47 959.5,1389.5C 953.073,1391.24 950.406,1388.9 951.5,1382.5C 949.473,1382.66 947.473,1382.5 945.5,1382C 943.342,1380.69 943.009,1379.02 944.5,1377C 940.421,1376.93 937.088,1375.43 934.5,1372.5C 934.977,1371.52 935.643,1370.69 936.5,1370C 933.833,1369.67 931.167,1369.33 928.5,1369C 926.473,1367.6 926.14,1365.94 927.5,1364C 921.504,1364.86 918.838,1362.36 919.5,1356.5C 917.143,1356.66 914.81,1356.5 912.5,1356C 911.594,1354.3 911.261,1352.47 911.5,1350.5C 907.842,1350.57 905.175,1349.07 903.5,1346C 903.645,1345.23 903.978,1344.56 904.5,1344C 901.768,1343.59 899.101,1342.92 896.5,1342C 895.826,1340.25 895.493,1338.58 895.5,1337C 893.167,1336.67 890.833,1336.33 888.5,1336C 887.594,1334.3 887.261,1332.47 887.5,1330.5C 881.838,1331.82 879.504,1329.82 880.5,1324.5C 877.973,1323.79 875.473,1323.12 873,1322.5C 872.506,1320.87 872.34,1319.2 872.5,1317.5C 867.017,1318.19 865.017,1316.03 866.5,1311C 863.711,1310.76 861.044,1310.09 858.5,1309C 857.167,1307.67 857.167,1306.33 858.5,1305C 856,1304.63 853.667,1303.79 851.5,1302.5C 850.253,1300.99 850.253,1299.49 851.5,1298C 848.768,1297.59 846.101,1296.92 843.5,1296C 842.167,1294.67 842.167,1293.33 843.5,1292C 840.879,1291.06 838.212,1290.23 835.5,1289.5C 834.253,1287.96 834.253,1286.46 835.5,1285C 833.5,1284.67 831.5,1284.33 829.5,1284C 827.559,1282.18 826.892,1280.18 827.5,1278C 825.423,1277.81 823.423,1277.31 821.5,1276.5C 820.253,1274.96 820.253,1273.46 821.5,1272C 818.666,1271.95 816.166,1271.12 814,1269.5C 813.405,1268.1 813.572,1266.77 814.5,1265.5C 812.167,1264.83 809.833,1264.17 807.5,1263.5C 806.167,1262.17 806.167,1260.83 807.5,1259.5C 805.314,1258.78 803.147,1258.11 801,1257.5C 800.505,1255.53 800.338,1253.53 800.5,1251.5C 795.069,1252.91 792.735,1250.91 793.5,1245.5C 788.325,1246.33 786.325,1244.33 787.5,1239.5C 785.314,1238.78 783.147,1238.11 781,1237.5C 780.506,1235.87 780.34,1234.2 780.5,1232.5C 775.017,1233.19 773.017,1231.03 774.5,1226C 770.863,1226.32 768.196,1224.98 766.5,1222C 766.957,1221.59 767.291,1221.09 767.5,1220.5C 765.51,1219.13 763.343,1218.13 761,1217.5C 760.28,1215.89 760.446,1214.39 761.5,1213C 755.528,1213.86 753.195,1211.36 754.5,1205.5C 752.473,1205.66 750.473,1205.5 748.5,1205C 747.167,1203.33 747.167,1201.67 748.5,1200C 742.528,1200.86 740.195,1198.36 741.5,1192.5C 739.396,1192.8 737.396,1192.47 735.5,1191.5C 734.253,1189.96 734.253,1188.46 735.5,1187C 730.326,1187.34 728.326,1185.17 729.5,1180.5C 727.314,1179.78 725.147,1179.11 723,1178.5C 722.506,1176.87 722.34,1175.2 722.5,1173.5C 717.094,1174.26 715.094,1171.93 716.5,1166.5C 711.094,1167.26 709.094,1164.93 710.5,1159.5C 705.333,1160.51 703.666,1158.67 705.5,1154C 703.833,1153.17 702.167,1152.33 700.5,1151.5C 699.269,1150.35 699.269,1149.18 700.5,1148C 698.552,1147.02 696.718,1145.85 695,1144.5C 694.316,1143.22 694.483,1142.05 695.5,1141C 690.36,1141.37 688.36,1139.2 689.5,1134.5C 687.314,1133.78 685.147,1133.11 683,1132.5C 682.506,1130.87 682.34,1129.2 682.5,1127.5C 677.312,1127.13 675.646,1124.47 677.5,1119.5C 673.134,1120.97 671.468,1119.47 672.5,1115C 669.145,1113.76 667.811,1111.59 668.5,1108.5C 666.955,1107.55 665.288,1107.21 663.5,1107.5C 664.418,1102.51 662.418,1100.17 657.5,1100.5C 657.663,1098.14 657.497,1095.81 657,1093.5C 655.062,1094.86 653.396,1094.53 652,1092.5C 651.67,1089.51 650.836,1086.68 649.5,1084C 649.645,1083.23 649.978,1082.56 650.5,1082C 648.423,1081.81 646.423,1081.31 644.5,1080.5C 643.167,1078.83 643.167,1077.17 644.5,1075.5C 642.5,1074.83 640.5,1074.17 638.5,1073.5C 638.127,1069.63 637.46,1065.63 636.5,1061.5C 634.533,1061.74 632.699,1061.41 631,1060.5C 630.695,1058.44 630.695,1056.44 631,1054.5C 629.333,1055.83 627.667,1055.83 626,1054.5C 625.172,1050.53 624.672,1046.53 624.5,1042.5C 621.514,1042.56 619.18,1041.4 617.5,1039C 618.573,1035.89 618.573,1032.72 617.5,1029.5C 615.5,1029.17 613.5,1028.83 611.5,1028.5C 611.665,1025.48 611.498,1022.48 611,1019.5C 610.047,1021.59 608.714,1021.93 607,1020.5C 606.727,1017.61 605.893,1014.94 604.5,1012.5C 606.374,1008.23 605.708,1007.23 602.5,1009.5C 601.522,1009.02 600.689,1008.36 600,1007.5C 599.147,1003.53 598.481,999.531 598,995.5C 595.978,996.991 594.312,996.658 593,994.5C 591.655,989.836 591.322,985.169 592,980.5C 591.667,980.167 591.333,979.833 591,979.5C 590.29,980.973 589.124,981.64 587.5,981.5C 586.238,975.926 585.405,970.26 585,964.5C 582.688,964.045 580.688,963.045 579,961.5C 579.103,957.27 578.769,952.936 578,948.5C 575.785,949.82 574.285,949.153 573.5,946.5C 574.855,945.325 574.688,944.325 573,943.5C 572.828,938.798 572.328,934.132 571.5,929.5C 570.28,930.711 569.113,930.711 568,929.5C 566.196,921.618 565.029,913.618 564.5,905.5C 563.264,904.754 561.93,904.421 560.5,904.5C 559.984,891.163 559.318,880.496 558.5,872.5C 557.07,872.579 555.736,872.246 554.5,871.5C 553.692,869.577 553.192,867.577 553,865.5C 552.333,836.833 552.333,808.167 553,779.5C 553.139,776.175 554.139,773.175 556,770.5C 557.011,771.337 558.178,771.67 559.5,771.5C 559.135,761.443 559.635,751.443 561,741.5C 562.356,740.62 563.856,740.286 565.5,740.5C 565.149,733.951 566.149,727.618 568.5,721.5C 570.784,720.584 571.951,721.584 572,724.5C 572.333,719.167 572.667,713.833 573,708.5C 574.699,707.594 576.533,707.261 578.5,707.5C 578.924,703.717 579.09,700.05 579,696.5C 580.401,694.808 582.234,694.141 584.5,694.5C 585.222,690.494 586.055,686.494 587,682.5C 588.458,681.253 589.958,681.253 591.5,682.5C 591.676,680.328 591.843,677.995 592,675.5C 593.699,674.594 595.533,674.261 597.5,674.5C 596.637,670.838 597.97,668.672 601.5,668C 599.965,664.259 601.299,662.426 605.5,662.5C 604.094,657.069 606.094,654.735 611.5,655.5C 611.338,653.473 611.505,651.473 612,649.5C 614.147,648.887 616.314,648.221 618.5,647.5C 617.167,646.167 617.167,644.833 618.5,643.5C 620.396,642.534 622.396,642.201 624.5,642.5C 624.196,636.316 627.196,633.816 633.5,635C 632.167,633.333 632.167,631.667 633.5,630C 636.167,629.333 638.833,628.667 641.5,628C 640.416,625.81 641.083,624.144 643.5,623C 646.167,622.667 648.833,622.333 651.5,622C 650.065,619.733 650.398,617.733 652.5,616C 655.833,615.667 659.167,615.333 662.5,615C 661.009,612.978 661.342,611.312 663.5,610C 667.5,609.667 671.5,609.333 675.5,609C 672.871,606.211 673.538,604.211 677.5,603C 682.5,602.667 687.5,602.333 692.5,602C 690.224,600.126 690.557,598.459 693.5,597C 700.5,596.667 707.5,596.333 714.5,596C 713.09,595.632 712.09,594.799 711.5,593.5C 713.219,591.648 715.219,590.314 717.5,589.5 Z"/></g>
<g><path style="opacity:0.762" fill="#babbba" d="M 705.5,540.5 C 738.5,540.5 771.5,540.5 804.5,540.5C 804.5,541.5 804.5,542.5 804.5,543.5C 810.509,543.334 816.509,543.501 822.5,544C 819.833,545.667 819.833,547.333 822.5,549C 829.087,550.212 835.754,550.879 842.5,551C 839.833,552.667 839.833,554.333 842.5,556C 847.946,556.101 853.279,556.768 858.5,558C 857.167,559.333 857.167,560.667 858.5,562C 863.051,563.215 867.718,563.881 872.5,564C 869.833,565.667 869.833,567.333 872.5,569C 876.381,570.19 880.381,570.857 884.5,571C 883.167,572.333 883.167,573.667 884.5,575C 888.046,576.174 891.713,576.84 895.5,577C 894.167,578.667 894.167,580.333 895.5,582C 899.114,582.945 902.781,583.612 906.5,584C 905.167,585.667 905.167,587.333 906.5,589C 909.5,589.333 912.5,589.667 915.5,590C 912.833,591.667 912.833,593.333 915.5,595C 918.471,595.794 921.471,596.461 924.5,597C 922.027,598.402 922.027,599.902 924.5,601.5C 926.854,602.06 929.187,602.727 931.5,603.5C 930.39,605.496 930.724,607.329 932.5,609C 934.833,609.333 937.167,609.667 939.5,610C 938.167,611.667 938.167,613.333 939.5,615C 941.5,615.333 943.5,615.667 945.5,616C 945.799,617.32 945.966,618.82 946,620.5C 948.166,622.121 950.666,622.955 953.5,623C 951.798,627.625 953.298,629.459 958,628.5C 958.208,630.777 959.042,632.943 960.5,635C 962.134,635.494 963.801,635.66 965.5,635.5C 964.094,640.931 966.094,643.265 971.5,642.5C 970.5,647.5 972.5,649.5 977.5,648.5C 977.338,650.527 977.505,652.527 978,654.5C 980.147,655.113 982.314,655.779 984.5,656.5C 983.167,657.833 983.167,659.167 984.5,660.5C 985.991,661.244 987.491,661.91 989,662.5C 991.161,665.831 992.495,669.498 993,673.5C 994.825,674.103 996.659,674.77 998.5,675.5C 996.439,680.603 997.939,682.27 1003,680.5C 1003.22,676.959 1004.39,673.793 1006.5,671C 1006.36,670.228 1006.02,669.561 1005.5,669C 1007.58,668.808 1009.58,668.308 1011.5,667.5C 1012.83,665.833 1012.83,664.167 1011.5,662.5C 1013.69,661.779 1015.85,661.113 1018,660.5C 1018.5,658.527 1018.66,656.527 1018.5,654.5C 1022.95,655.127 1024.61,653.46 1023.5,649.5C 1024.91,648.376 1026.41,647.376 1028,646.5C 1028.68,645.216 1028.52,644.049 1027.5,643C 1030.28,642.934 1032.44,641.768 1034,639.5C 1034.49,638.451 1034.33,637.451 1033.5,636.5C 1036.73,636.247 1039.07,634.747 1040.5,632C 1040.04,631.586 1039.71,631.086 1039.5,630.5C 1043.37,630.368 1046.03,628.535 1047.5,625C 1046.83,624.333 1046.17,623.667 1045.5,623C 1050.9,623.367 1053.9,621.201 1054.5,616.5C 1056.54,615.764 1058.54,614.931 1060.5,614C 1061.83,612.667 1061.83,611.333 1060.5,610C 1063.04,609.661 1065.54,609.161 1068,608.5C 1070.28,607.289 1070.78,605.622 1069.5,603.5C 1071.77,602.686 1074.1,602.186 1076.5,602C 1078.01,600.561 1078.35,599.061 1077.5,597.5C 1079.77,596.686 1082.1,596.186 1084.5,596C 1086.6,594.267 1086.93,592.267 1085.5,590C 1088.85,589.545 1092.19,589.045 1095.5,588.5C 1095.71,586.856 1095.38,585.356 1094.5,584C 1097.5,583.667 1100.5,583.333 1103.5,583C 1105.6,581.267 1105.93,579.267 1104.5,577C 1107.5,576.667 1110.5,576.333 1113.5,576C 1116.35,575.121 1117.01,573.454 1115.5,571C 1119.96,570.736 1124.29,569.902 1128.5,568.5C 1129.75,566.994 1129.75,565.494 1128.5,564C 1132.17,563.667 1135.83,563.333 1139.5,563C 1142.35,562.121 1143.01,560.454 1141.5,558C 1146.39,556.776 1151.39,556.109 1156.5,556C 1158.86,555.411 1159.86,553.911 1159.5,551.5C 1163.85,550.734 1170.18,549.901 1178.5,549C 1181.04,547.437 1181.04,545.937 1178.5,544.5C 1184.13,543.505 1189.79,543.171 1195.5,543.5C 1195.5,542.5 1195.5,541.5 1195.5,540.5C 1228.17,540.5 1260.83,540.5 1293.5,540.5C 1293.5,541.5 1293.5,542.5 1293.5,543.5C 1299.21,543.171 1304.87,543.505 1310.5,544.5C 1307.96,545.937 1307.96,547.437 1310.5,549C 1317.09,550.212 1323.75,550.879 1330.5,551C 1327.85,553.082 1328.18,554.749 1331.5,556C 1336.28,556.119 1340.95,556.785 1345.5,558C 1343.99,560.454 1344.65,562.121 1347.5,563C 1351.17,563.333 1354.83,563.667 1358.5,564C 1357.17,565.667 1357.17,567.333 1358.5,569C 1362.24,569.177 1365.91,570.01 1369.5,571.5C 1368.56,573.47 1369.22,574.97 1371.5,576C 1374.5,576.333 1377.5,576.667 1380.5,577C 1377.83,578.667 1377.83,580.333 1380.5,582C 1383.47,582.794 1386.47,583.461 1389.5,584C 1388.14,585.938 1388.47,587.604 1390.5,589C 1392.9,589.186 1395.23,589.686 1397.5,590.5C 1396.5,595.824 1398.84,597.824 1404.5,596.5C 1403.74,601.906 1406.07,603.906 1411.5,602.5C 1411.2,604.604 1411.53,606.604 1412.5,608.5C 1414.54,609.041 1416.54,609.708 1418.5,610.5C 1417.17,611.833 1417.17,613.167 1418.5,614.5C 1420.4,615.466 1422.4,615.799 1424.5,615.5C 1423.09,620.931 1425.09,623.265 1430.5,622.5C 1429.09,627.931 1431.09,630.265 1436.5,629.5C 1435.5,634.5 1437.5,636.5 1442.5,635.5C 1443.57,639.532 1444.57,643.532 1445.5,647.5C 1447.17,647.5 1448.83,647.5 1450.5,647.5C 1450.5,650.167 1450.5,652.833 1450.5,655.5C 1452.5,655.5 1454.5,655.5 1456.5,655.5C 1456.52,659.611 1457.19,663.611 1458.5,667.5C 1460.05,668.452 1461.71,668.785 1463.5,668.5C 1463.78,672.964 1464.61,676.964 1466,680.5C 1467.11,681.711 1468.28,681.711 1469.5,680.5C 1470.64,681.776 1470.64,683.109 1469.5,684.5C 1471.03,687.66 1471.69,690.993 1471.5,694.5C 1473.17,694.5 1474.83,694.5 1476.5,694.5C 1476.74,698.842 1477.07,703.176 1477.5,707.5C 1479.58,707.472 1481.42,708.139 1483,709.5C 1483.5,715.491 1483.67,721.491 1483.5,727.5C 1485.26,727.357 1486.93,727.691 1488.5,728.5C 1490.01,734.486 1490.51,740.486 1490,746.5C 1491.01,747.337 1492.18,747.67 1493.5,747.5C 1493.5,797.5 1493.5,847.5 1493.5,897.5C 1491.05,897.085 1489.72,898.085 1489.5,900.5C 1490.19,905.807 1490.03,911.141 1489,916.5C 1487.64,917.38 1486.14,917.714 1484.5,917.5C 1483.9,925.153 1483.4,932.82 1483,940.5C 1481.83,942.671 1479.99,943.671 1477.5,943.5C 1476.81,949.81 1476.48,956.143 1476.5,962.5C 1474.5,962.833 1472.5,963.167 1470.5,963.5C 1470.83,968.214 1470.49,972.88 1469.5,977.5C 1468.28,976.289 1467.11,976.289 1466,977.5C 1464.04,983.336 1463.2,989.336 1463.5,995.5C 1461.5,995.5 1459.5,995.5 1457.5,995.5C 1457.73,999.39 1457.39,1003.22 1456.5,1007C 1455.05,1008.71 1453.21,1009.88 1451,1010.5C 1450.5,1014.49 1450.33,1018.49 1450.5,1022.5C 1448.53,1022.26 1446.7,1022.59 1445,1023.5C 1444.17,1027.47 1443.67,1031.47 1443.5,1035.5C 1441.5,1035.5 1439.5,1035.5 1437.5,1035.5C 1437.67,1039.51 1437.5,1043.51 1437,1047.5C 1435.17,1048.1 1433.34,1048.77 1431.5,1049.5C 1430.67,1053.47 1430,1057.47 1429.5,1061.5C 1427.71,1061.21 1426.05,1061.55 1424.5,1062.5C 1424.22,1065.07 1424.06,1067.73 1424,1070.5C 1422.69,1068.34 1421.02,1068.01 1419,1069.5C 1418.28,1071.11 1418.45,1072.61 1419.5,1074C 1417.9,1075.79 1417.07,1077.95 1417,1080.5C 1415.3,1081.41 1413.47,1081.74 1411.5,1081.5C 1411.66,1083.86 1411.5,1086.19 1411,1088.5C 1409.67,1089.17 1408.33,1089.83 1407,1090.5C 1406.51,1091.55 1406.67,1092.55 1407.5,1093.5C 1404.13,1094.74 1403.13,1096.9 1404.5,1100C 1402.57,1100.25 1400.73,1100.75 1399,1101.5C 1398.5,1103.81 1398.34,1106.14 1398.5,1108.5C 1396.53,1108.26 1394.7,1108.59 1393,1109.5C 1392.32,1110.78 1392.48,1111.95 1393.5,1113C 1390.96,1114.81 1389.96,1117.31 1390.5,1120.5C 1385.09,1119.74 1383.09,1122.07 1384.5,1127.5C 1379.33,1126.49 1377.67,1128.33 1379.5,1133C 1378.27,1134.53 1376.77,1135.7 1375,1136.5C 1374.38,1137.45 1374.55,1138.28 1375.5,1139C 1374.24,1139.92 1372.91,1140.76 1371.5,1141.5C 1370.25,1143.04 1370.25,1144.54 1371.5,1146C 1365.87,1145.48 1363.54,1147.98 1364.5,1153.5C 1359.09,1152.74 1357.09,1155.07 1358.5,1160.5C 1354.05,1159.87 1352.39,1161.54 1353.5,1165.5C 1352.09,1166.62 1350.59,1167.62 1349,1168.5C 1348.32,1169.78 1348.48,1170.95 1349.5,1172C 1345.46,1172.65 1343.79,1174.82 1344.5,1178.5C 1342.5,1179.17 1340.5,1179.83 1338.5,1180.5C 1337.25,1182.04 1337.25,1183.54 1338.5,1185C 1336.34,1185.91 1334.17,1186.75 1332,1187.5C 1331.51,1189.13 1331.34,1190.8 1331.5,1192.5C 1326.09,1191.74 1324.09,1194.07 1325.5,1199.5C 1320.5,1198.5 1318.5,1200.5 1319.5,1205.5C 1314.09,1204.74 1312.09,1207.07 1313.5,1212.5C 1308.63,1211.53 1306.47,1213.53 1307,1218.5C 1305.33,1219.17 1303.67,1219.83 1302,1220.5C 1301.28,1222.11 1301.45,1223.61 1302.5,1225C 1300.5,1225.67 1298.5,1226.33 1296.5,1227C 1295.17,1228.33 1295.17,1229.67 1296.5,1231C 1293.8,1231.76 1291.3,1232.93 1289,1234.5C 1288.49,1236 1288.99,1237.16 1290.5,1238C 1288.39,1238.36 1286.39,1239.03 1284.5,1240C 1283.17,1241.33 1283.17,1242.67 1284.5,1244C 1282.05,1244.72 1279.72,1245.72 1277.5,1247C 1276.17,1248.33 1276.17,1249.67 1277.5,1251C 1272.91,1251.59 1270.57,1253.92 1270.5,1258C 1267.99,1258.09 1265.83,1258.93 1264,1260.5C 1263.32,1261.78 1263.48,1262.95 1264.5,1264C 1262.22,1264.23 1260.22,1265.07 1258.5,1266.5C 1257.36,1267.78 1257.36,1269.11 1258.5,1270.5C 1256.58,1271.31 1254.58,1271.81 1252.5,1272C 1250.47,1273.4 1250.14,1275.06 1251.5,1277C 1248.06,1277.22 1245.39,1278.72 1243.5,1281.5C 1243.83,1282.17 1244.17,1282.83 1244.5,1283.5C 1242.14,1284.27 1239.8,1285.1 1237.5,1286C 1236.17,1287.33 1236.17,1288.67 1237.5,1290C 1235.13,1290.73 1232.8,1291.57 1230.5,1292.5C 1229.25,1294.01 1229.25,1295.51 1230.5,1297C 1227.85,1297.45 1225.35,1298.29 1223,1299.5C 1222.32,1300.78 1222.48,1301.95 1223.5,1303C 1221.29,1304.04 1218.95,1304.71 1216.5,1305C 1215.17,1306.67 1215.17,1308.33 1216.5,1310C 1214.17,1310.33 1211.83,1310.67 1209.5,1311C 1208.58,1313.04 1208.24,1315.21 1208.5,1317.5C 1206.17,1317.5 1203.83,1317.5 1201.5,1317.5C 1201.5,1319.5 1201.5,1321.5 1201.5,1323.5C 1195.5,1322.17 1193.17,1324.5 1194.5,1330.5C 1192.08,1330.19 1189.74,1330.53 1187.5,1331.5C 1186.25,1333.04 1186.25,1334.54 1187.5,1336C 1185.5,1336.33 1183.5,1336.67 1181.5,1337C 1179.38,1338.52 1179.05,1340.36 1180.5,1342.5C 1177.74,1343.03 1175.24,1344.03 1173,1345.5C 1172.32,1346.78 1172.48,1347.95 1173.5,1349C 1169.42,1349.07 1166.09,1350.57 1163.5,1353.5C 1163.98,1354.48 1164.64,1355.31 1165.5,1356C 1162.71,1356.24 1160.04,1356.91 1157.5,1358C 1156.17,1359.33 1156.17,1360.67 1157.5,1362C 1154.88,1362.94 1152.21,1363.77 1149.5,1364.5C 1148.17,1365.83 1148.17,1367.17 1149.5,1368.5C 1147.58,1369.31 1145.58,1369.81 1143.5,1370C 1141.56,1371.82 1140.89,1373.82 1141.5,1376C 1139.5,1376.33 1137.5,1376.67 1135.5,1377C 1133.47,1378.4 1133.14,1380.06 1134.5,1382C 1132.05,1382.29 1129.71,1382.96 1127.5,1384C 1126.17,1385.67 1126.17,1387.33 1127.5,1389C 1124.1,1389.1 1120.93,1389.93 1118,1391.5C 1117.32,1392.78 1117.48,1393.95 1118.5,1395C 1114.45,1394.65 1111.45,1396.15 1109.5,1399.5C 1109.83,1400.17 1110.17,1400.83 1110.5,1401.5C 1108.23,1402.31 1105.9,1402.81 1103.5,1403C 1101.99,1404.44 1101.65,1405.94 1102.5,1407.5C 1099.74,1408.03 1097.24,1409.03 1095,1410.5C 1094.28,1412.11 1094.45,1413.61 1095.5,1415C 1092.71,1415.24 1090.04,1415.91 1087.5,1417C 1086.17,1418.33 1086.17,1419.67 1087.5,1421C 1084.53,1421.79 1081.53,1422.46 1078.5,1423C 1077.17,1424.67 1077.17,1426.33 1078.5,1428C 1076.17,1428.33 1073.83,1428.67 1071.5,1429C 1069.56,1430.82 1068.89,1432.82 1069.5,1435C 1067.17,1435.33 1064.83,1435.67 1062.5,1436C 1061.17,1437.67 1061.17,1439.33 1062.5,1441C 1059.31,1441.2 1056.31,1442.03 1053.5,1443.5C 1052.36,1444.78 1052.36,1446.11 1053.5,1447.5C 1050.89,1448.32 1048.23,1448.82 1045.5,1449C 1044.17,1450.67 1044.17,1452.33 1045.5,1454C 1043.17,1454.33 1040.83,1454.67 1038.5,1455C 1036.4,1456.73 1036.07,1458.73 1037.5,1461C 1034.78,1461.27 1032.11,1461.77 1029.5,1462.5C 1028.55,1464.05 1028.21,1465.71 1028.5,1467.5C 1024.45,1467.33 1021.12,1468.66 1018.5,1471.5C 1018.98,1472.48 1019.64,1473.31 1020.5,1474C 1017.83,1474.33 1015.17,1474.67 1012.5,1475C 1011.55,1478.06 1011.22,1481.22 1011.5,1484.5C 1005.17,1484.5 998.833,1484.5 992.5,1484.5C 992.5,1483.17 992.5,1481.83 992.5,1480.5C 991.127,1480.66 989.793,1480.49 988.5,1480C 989.833,1478.67 989.833,1477.33 988.5,1476C 985.879,1475.06 983.212,1474.23 980.5,1473.5C 981.734,1471.6 981.401,1469.94 979.5,1468.5C 977.146,1467.94 974.813,1467.27 972.5,1466.5C 973.859,1464.69 973.525,1463.19 971.5,1462C 968.774,1461.82 966.107,1461.32 963.5,1460.5C 964.645,1459.11 964.645,1457.78 963.5,1456.5C 960.627,1455.23 957.627,1454.39 954.5,1454C 955.86,1452.06 955.527,1450.4 953.5,1449C 951.1,1448.81 948.766,1448.31 946.5,1447.5C 947.953,1445.36 947.62,1443.52 945.5,1442C 943.167,1441.67 940.833,1441.33 938.5,1441C 939.833,1439.33 939.833,1437.67 938.5,1436C 935.854,1435.5 933.187,1435.34 930.5,1435.5C 930.739,1433.53 930.406,1431.7 929.5,1430C 926.956,1428.91 924.289,1428.24 921.5,1428C 922.833,1426.33 922.833,1424.67 921.5,1423C 918.833,1422.33 916.167,1421.67 913.5,1421C 914.747,1419.54 914.747,1418.04 913.5,1416.5C 910.893,1415.68 908.226,1415.18 905.5,1415C 906.833,1413.33 906.833,1411.67 905.5,1410C 902.768,1409.59 900.101,1408.92 897.5,1408C 899.013,1405.55 898.346,1403.88 895.5,1403C 893.167,1402.67 890.833,1402.33 888.5,1402C 891.064,1399.72 890.73,1397.72 887.5,1396C 885.5,1395.67 883.5,1395.33 881.5,1395C 882.833,1393.33 882.833,1391.67 881.5,1390C 879.19,1389.5 876.857,1389.34 874.5,1389.5C 874.97,1383.81 872.303,1381.31 866.5,1382C 867.517,1380.95 867.684,1379.78 867,1378.5C 864.834,1376.88 862.334,1376.05 859.5,1376C 860.089,1374.13 859.422,1372.46 857.5,1371C 854.956,1369.91 852.289,1369.24 849.5,1369C 851.158,1368.27 851.658,1367.11 851,1365.5C 848.53,1363.56 845.696,1362.4 842.5,1362C 843.86,1360.06 843.527,1358.4 841.5,1357C 839.423,1356.81 837.423,1356.31 835.5,1355.5C 836.496,1350.18 834.162,1348.18 828.5,1349.5C 828.739,1347.53 828.406,1345.7 827.5,1344C 825.167,1343.67 822.833,1343.33 820.5,1343C 821.833,1341.33 821.833,1339.67 820.5,1338C 818.104,1337.12 815.771,1336.45 813.5,1336C 814.86,1334.06 814.527,1332.4 812.5,1331C 810.1,1330.81 807.766,1330.31 805.5,1329.5C 806.645,1328.11 806.645,1326.78 805.5,1325.5C 803.018,1324.1 800.352,1323.27 797.5,1323C 798.747,1321.51 798.747,1320.01 797.5,1318.5C 795.556,1317.81 793.556,1317.31 791.5,1317C 792.108,1314.82 791.441,1312.82 789.5,1311C 787.5,1310.67 785.5,1310.33 783.5,1310C 784.833,1308.33 784.833,1306.67 783.5,1305C 781.212,1304.18 778.878,1303.51 776.5,1303C 777.86,1301.06 777.527,1299.4 775.5,1298C 773.5,1297.67 771.5,1297.33 769.5,1297C 770.983,1291.97 768.983,1289.81 763.5,1290.5C 763.66,1288.8 763.494,1287.13 763,1285.5C 760.853,1284.89 758.686,1284.22 756.5,1283.5C 757.675,1278.67 755.675,1276.67 750.5,1277.5C 751.265,1272.09 748.931,1270.09 743.5,1271.5C 744.805,1265.64 742.472,1263.14 736.5,1264C 737.833,1262.33 737.833,1260.67 736.5,1259C 734.527,1258.5 732.527,1258.34 730.5,1258.5C 731.805,1252.64 729.472,1250.14 723.5,1251C 725.303,1246.45 723.637,1244.45 718.5,1245C 717.833,1243 717.167,1241 716.5,1239C 714.5,1238.67 712.5,1238.33 710.5,1238C 711.983,1232.97 709.983,1230.81 704.5,1231.5C 705.231,1226.25 702.898,1224.08 697.5,1225C 698.947,1220.09 696.947,1217.76 691.5,1218C 692.747,1216.54 692.747,1215.04 691.5,1213.5C 689.604,1212.53 687.604,1212.2 685.5,1212.5C 686.405,1207.64 684.405,1204.97 679.5,1204.5C 680.347,1202.94 680.014,1201.44 678.5,1200C 676.616,1199.78 674.949,1199.12 673.5,1198C 674.167,1197.33 674.833,1196.67 675.5,1196C 673.359,1194.69 671.359,1193.19 669.5,1191.5C 670.46,1190.19 670.294,1188.85 669,1187.5C 667.053,1186.89 665.219,1186.06 663.5,1185C 664.479,1183.22 664.146,1181.55 662.5,1180C 660.744,1179.8 659.078,1179.3 657.5,1178.5C 658.704,1174.27 657.037,1172.27 652.5,1172.5C 652.828,1167.58 650.495,1165.58 645.5,1166.5C 646.885,1161.19 644.885,1158.69 639.5,1159C 640.761,1155.55 639.428,1153.55 635.5,1153C 637.492,1148.85 636.159,1147.01 631.5,1147.5C 632.906,1142.07 630.906,1139.74 625.5,1140.5C 626.906,1135.07 624.906,1132.74 619.5,1133.5C 619.66,1131.8 619.494,1130.13 619,1128.5C 617.113,1126.97 616.113,1124.97 616,1122.5C 614.667,1121.83 613.333,1121.17 612,1120.5C 611.667,1118.5 611.333,1116.5 611,1114.5C 609.644,1113.62 608.144,1113.29 606.5,1113.5C 606.827,1108.94 604.661,1106.61 600,1106.5C 599.226,1102.85 598.559,1099.19 598,1095.5C 596.301,1094.59 594.467,1094.26 592.5,1094.5C 592.5,1092.17 592.5,1089.83 592.5,1087.5C 590.5,1087.5 588.5,1087.5 586.5,1087.5C 586.142,1083.49 585.642,1079.49 585,1075.5C 583.301,1074.59 581.467,1074.26 579.5,1074.5C 579.953,1071.35 578.953,1068.85 576.5,1067C 577.93,1065.12 577.596,1063.62 575.5,1062.5C 574.201,1063.09 573.368,1064.09 573,1065.5C 572.501,1061.85 572.335,1058.18 572.5,1054.5C 570.5,1054.5 568.5,1054.5 566.5,1054.5C 566.076,1050.72 565.91,1047.05 566,1043.5C 564.312,1041.96 562.312,1040.96 560,1040.5C 559.762,1036.78 559.262,1033.11 558.5,1029.5C 556.955,1028.55 555.288,1028.21 553.5,1028.5C 552.92,1024.19 552.586,1019.86 552.5,1015.5C 550.5,1015.5 548.5,1015.5 546.5,1015.5C 546.665,1011.82 546.499,1008.15 546,1004.5C 544.312,1002.96 542.312,1001.96 540,1001.5C 539.297,998.287 539.464,995.121 540.5,992C 538.372,990.013 537.372,987.513 537.5,984.5C 535.876,984.36 534.71,985.027 534,986.5C 533.597,981.133 532.93,975.799 532,970.5C 529.978,969.009 528.312,969.342 527,971.5C 526.667,964.833 526.333,958.167 526,951.5C 524.416,950.139 522.582,949.472 520.5,949.5C 520.524,943.143 520.19,936.81 519.5,930.5C 517.278,930.822 515.444,930.155 514,928.5C 513.667,921.167 513.333,913.833 513,906.5C 511.561,904.725 510.561,902.725 510,900.5C 509.586,900.957 509.086,901.291 508.5,901.5C 507.741,898.843 507.074,896.177 506.5,893.5C 505.675,892.614 504.675,892.281 503.5,892.5C 503.5,845.833 503.5,799.167 503.5,752.5C 504.822,752.67 505.989,752.337 507,751.5C 507.333,748.5 507.667,745.5 508,742.5C 508.419,743.672 509.085,744.672 510,745.5C 510.113,743.026 511.113,741.026 513,739.5C 513.333,732.833 513.667,726.167 514,719.5C 515.356,720.38 516.856,720.714 518.5,720.5C 519.869,714.259 520.536,707.926 520.5,701.5C 522.5,701.5 524.5,701.5 526.5,701.5C 526.173,696.786 526.507,692.12 527.5,687.5C 529.306,688.859 530.806,688.525 532,686.5C 532.853,682.531 533.519,678.531 534,674.5C 535.628,675.097 537.295,674.763 539,673.5C 539.559,669.814 540.226,666.147 541,662.5C 542.667,661.833 544.333,661.167 546,660.5C 546.497,658.19 546.663,655.857 546.5,653.5C 549.921,653.762 550.921,652.428 549.5,649.5C 550.689,648.571 552.022,648.238 553.5,648.5C 553.5,646.5 553.5,644.5 553.5,642.5C 555.199,642.66 556.866,642.494 558.5,642C 559.274,639.595 559.774,637.095 560,634.5C 562.782,636.011 564.615,635.178 565.5,632C 564.652,628.994 565.985,627.494 569.5,627.5C 569.714,625.856 569.38,624.356 568.5,623C 572.59,622.744 574.923,620.578 575.5,616.5C 577.225,615.985 578.892,615.318 580.5,614.5C 581.747,612.958 581.747,611.458 580.5,610C 586.405,610.279 588.738,607.779 587.5,602.5C 589.527,602.662 591.527,602.495 593.5,602C 595.527,600.604 595.86,598.938 594.5,597C 598.579,596.927 601.912,595.427 604.5,592.5C 604.023,591.522 603.357,590.689 602.5,590C 605.167,589.667 607.833,589.333 610.5,589C 612.527,587.604 612.86,585.938 611.5,584C 614.623,583.794 617.623,583.127 620.5,582C 621.833,580.333 621.833,578.667 620.5,577C 623.5,576.667 626.5,576.333 629.5,576C 631.527,574.604 631.86,572.938 630.5,571C 634.65,570.816 638.65,569.982 642.5,568.5C 643.83,566.653 643.497,565.153 641.5,564C 646.251,563.811 650.917,563.145 655.5,562C 656.174,560.249 656.507,558.583 656.5,557C 660.833,556.667 665.167,556.333 669.5,556C 672.443,554.541 672.776,552.874 670.5,551C 676.914,550.871 683.247,550.204 689.5,549C 691.754,547.946 692.087,546.446 690.5,544.5C 695.456,543.506 700.456,543.173 705.5,543.5C 705.5,542.5 705.5,541.5 705.5,540.5 Z M 717.5,589.5 C 715.219,590.314 713.219,591.648 711.5,593.5C 712.09,594.799 713.09,595.632 714.5,596C 707.5,596.333 700.5,596.667 693.5,597C 690.557,598.459 690.224,600.126 692.5,602C 687.5,602.333 682.5,602.667 677.5,603C 673.538,604.211 672.871,606.211 675.5,609C 671.5,609.333 667.5,609.667 663.5,610C 661.342,611.312 661.009,612.978 662.5,615C 659.167,615.333 655.833,615.667 652.5,616C 650.398,617.733 650.065,619.733 651.5,622C 648.833,622.333 646.167,622.667 643.5,623C 641.083,624.144 640.416,625.81 641.5,628C 638.833,628.667 636.167,629.333 633.5,630C 632.167,631.667 632.167,633.333 633.5,635C 627.196,633.816 624.196,636.316 624.5,642.5C 622.396,642.201 620.396,642.534 618.5,643.5C 617.167,644.833 617.167,646.167 618.5,647.5C 616.314,648.221 614.147,648.887 612,649.5C 611.505,651.473 611.338,653.473 611.5,655.5C 606.094,654.735 604.094,657.069 605.5,662.5C 601.299,662.426 599.965,664.259 601.5,668C 597.97,668.672 596.637,670.838 597.5,674.5C 595.533,674.261 593.699,674.594 592,675.5C 591.843,677.995 591.676,680.328 591.5,682.5C 589.958,681.253 588.458,681.253 587,682.5C 586.055,686.494 585.222,690.494 584.5,694.5C 582.234,694.141 580.401,694.808 579,696.5C 579.09,700.05 578.924,703.717 578.5,707.5C 576.533,707.261 574.699,707.594 573,708.5C 572.667,713.833 572.333,719.167 572,724.5C 571.951,721.584 570.784,720.584 568.5,721.5C 566.149,727.618 565.149,733.951 565.5,740.5C 563.856,740.286 562.356,740.62 561,741.5C 559.635,751.443 559.135,761.443 559.5,771.5C 558.178,771.67 557.011,771.337 556,770.5C 554.139,773.175 553.139,776.175 553,779.5C 552.333,808.167 552.333,836.833 553,865.5C 553.192,867.577 553.692,869.577 554.5,871.5C 555.736,872.246 557.07,872.579 558.5,872.5C 559.318,880.496 559.984,891.163 560.5,904.5C 561.93,904.421 563.264,904.754 564.5,905.5C 565.029,913.618 566.196,921.618 568,929.5C 569.113,930.711 570.28,930.711 571.5,929.5C 572.328,934.132 572.828,938.798 573,943.5C 574.688,944.325 574.855,945.325 573.5,946.5C 574.285,949.153 575.785,949.82 578,948.5C 578.769,952.936 579.103,957.27 579,961.5C 580.688,963.045 582.688,964.045 585,964.5C 585.405,970.26 586.238,975.926 587.5,981.5C 589.124,981.64 590.29,980.973 591,979.5C 591.333,979.833 591.667,980.167 592,980.5C 591.322,985.169 591.655,989.836 593,994.5C 594.312,996.658 595.978,996.991 598,995.5C 598.481,999.531 599.147,1003.53 600,1007.5C 600.689,1008.36 601.522,1009.02 602.5,1009.5C 605.708,1007.23 606.374,1008.23 604.5,1012.5C 605.893,1014.94 606.727,1017.61 607,1020.5C 608.714,1021.93 610.047,1021.59 611,1019.5C 611.498,1022.48 611.665,1025.48 611.5,1028.5C 613.5,1028.83 615.5,1029.17 617.5,1029.5C 618.573,1032.72 618.573,1035.89 617.5,1039C 619.18,1041.4 621.514,1042.56 624.5,1042.5C 624.672,1046.53 625.172,1050.53 626,1054.5C 627.667,1055.83 629.333,1055.83 631,1054.5C 630.695,1056.44 630.695,1058.44 631,1060.5C 632.699,1061.41 634.533,1061.74 636.5,1061.5C 637.46,1065.63 638.127,1069.63 638.5,1073.5C 640.5,1074.17 642.5,1074.83 644.5,1075.5C 643.167,1077.17 643.167,1078.83 644.5,1080.5C 646.423,1081.31 648.423,1081.81 650.5,1082C 649.978,1082.56 649.645,1083.23 649.5,1084C 650.836,1086.68 651.67,1089.51 652,1092.5C 653.396,1094.53 655.062,1094.86 657,1093.5C 657.497,1095.81 657.663,1098.14 657.5,1100.5C 662.418,1100.17 664.418,1102.51 663.5,1107.5C 665.288,1107.21 666.955,1107.55 668.5,1108.5C 667.811,1111.59 669.145,1113.76 672.5,1115C 671.468,1119.47 673.134,1120.97 677.5,1119.5C 675.646,1124.47 677.312,1127.13 682.5,1127.5C 682.34,1129.2 682.506,1130.87 683,1132.5C 685.147,1133.11 687.314,1133.78 689.5,1134.5C 688.36,1139.2 690.36,1141.37 695.5,1141C 694.483,1142.05 694.316,1143.22 695,1144.5C 696.718,1145.85 698.552,1147.02 700.5,1148C 699.269,1149.18 699.269,1150.35 700.5,1151.5C 702.167,1152.33 703.833,1153.17 705.5,1154C 703.666,1158.67 705.333,1160.51 710.5,1159.5C 709.094,1164.93 711.094,1167.26 716.5,1166.5C 715.094,1171.93 717.094,1174.26 722.5,1173.5C 722.34,1175.2 722.506,1176.87 723,1178.5C 725.147,1179.11 727.314,1179.78 729.5,1180.5C 728.326,1185.17 730.326,1187.34 735.5,1187C 734.253,1188.46 734.253,1189.96 735.5,1191.5C 737.396,1192.47 739.396,1192.8 741.5,1192.5C 740.195,1198.36 742.528,1200.86 748.5,1200C 747.167,1201.67 747.167,1203.33 748.5,1205C 750.473,1205.5 752.473,1205.66 754.5,1205.5C 753.195,1211.36 755.528,1213.86 761.5,1213C 760.446,1214.39 760.28,1215.89 761,1217.5C 763.343,1218.13 765.51,1219.13 767.5,1220.5C 767.291,1221.09 766.957,1221.59 766.5,1222C 768.196,1224.98 770.863,1226.32 774.5,1226C 773.017,1231.03 775.017,1233.19 780.5,1232.5C 780.34,1234.2 780.506,1235.87 781,1237.5C 783.147,1238.11 785.314,1238.78 787.5,1239.5C 786.325,1244.33 788.325,1246.33 793.5,1245.5C 792.735,1250.91 795.069,1252.91 800.5,1251.5C 800.338,1253.53 800.505,1255.53 801,1257.5C 803.147,1258.11 805.314,1258.78 807.5,1259.5C 806.167,1260.83 806.167,1262.17 807.5,1263.5C 809.833,1264.17 812.167,1264.83 814.5,1265.5C 813.572,1266.77 813.405,1268.1 814,1269.5C 816.166,1271.12 818.666,1271.95 821.5,1272C 820.253,1273.46 820.253,1274.96 821.5,1276.5C 823.423,1277.31 825.423,1277.81 827.5,1278C 826.892,1280.18 827.559,1282.18 829.5,1284C 831.5,1284.33 833.5,1284.67 835.5,1285C 834.253,1286.46 834.253,1287.96 835.5,1289.5C 838.212,1290.23 840.879,1291.06 843.5,1292C 842.167,1293.33 842.167,1294.67 843.5,1296C 846.101,1296.92 848.768,1297.59 851.5,1298C 850.253,1299.49 850.253,1300.99 851.5,1302.5C 853.667,1303.79 856,1304.63 858.5,1305C 857.167,1306.33 857.167,1307.67 858.5,1309C 861.044,1310.09 863.711,1310.76 866.5,1311C 865.017,1316.03 867.017,1318.19 872.5,1317.5C 872.34,1319.2 872.506,1320.87 873,1322.5C 875.473,1323.12 877.973,1323.79 880.5,1324.5C 879.504,1329.82 881.838,1331.82 887.5,1330.5C 887.261,1332.47 887.594,1334.3 888.5,1336C 890.833,1336.33 893.167,1336.67 895.5,1337C 895.493,1338.58 895.826,1340.25 896.5,1342C 899.101,1342.92 901.768,1343.59 904.5,1344C 903.978,1344.56 903.645,1345.23 903.5,1346C 905.175,1349.07 907.842,1350.57 911.5,1350.5C 911.261,1352.47 911.594,1354.3 912.5,1356C 914.81,1356.5 917.143,1356.66 919.5,1356.5C 918.838,1362.36 921.504,1364.86 927.5,1364C 926.14,1365.94 926.473,1367.6 928.5,1369C 931.167,1369.33 933.833,1369.67 936.5,1370C 935.643,1370.69 934.977,1371.52 934.5,1372.5C 937.088,1375.43 940.421,1376.93 944.5,1377C 943.009,1379.02 943.342,1380.69 945.5,1382C 947.473,1382.5 949.473,1382.66 951.5,1382.5C 950.406,1388.9 953.073,1391.24 959.5,1389.5C 959.261,1391.47 959.594,1393.3 960.5,1395C 962.833,1395.33 965.167,1395.67 967.5,1396C 967.493,1397.58 967.826,1399.25 968.5,1401C 971.424,1401.99 974.424,1402.65 977.5,1403C 976.167,1404.67 976.167,1406.33 977.5,1408C 979.813,1408.66 982.146,1409.16 984.5,1409.5C 984.261,1411.47 984.594,1413.3 985.5,1415C 988.167,1415.33 990.833,1415.67 993.5,1416C 992.167,1417.67 992.167,1419.33 993.5,1421C 997.122,1422.11 1000.79,1422.44 1004.5,1422C 1007.06,1420.74 1007.72,1418.91 1006.5,1416.5C 1009.5,1415.67 1012.5,1414.83 1015.5,1414C 1016.83,1412.67 1016.83,1411.33 1015.5,1410C 1018.1,1409.08 1020.77,1408.41 1023.5,1408C 1024.41,1406.3 1024.74,1404.47 1024.5,1402.5C 1026.86,1402.66 1029.19,1402.5 1031.5,1402C 1033.28,1400.33 1033.61,1398.5 1032.5,1396.5C 1034.77,1395.69 1037.1,1395.19 1039.5,1395C 1041.78,1393.15 1041.78,1391.48 1039.5,1390C 1042.53,1389.46 1045.53,1388.79 1048.5,1388C 1049.75,1386.54 1049.75,1385.04 1048.5,1383.5C 1051.11,1382.68 1053.77,1382.18 1056.5,1382C 1057.41,1380.3 1057.74,1378.47 1057.5,1376.5C 1059.53,1376.66 1061.53,1376.5 1063.5,1376C 1065.62,1374.48 1065.95,1372.64 1064.5,1370.5C 1066.77,1369.69 1069.1,1369.19 1071.5,1369C 1073.53,1367.6 1073.86,1365.94 1072.5,1364C 1075.35,1363.73 1078.02,1362.9 1080.5,1361.5C 1081.83,1359.65 1081.5,1358.15 1079.5,1357C 1082.17,1356.67 1084.83,1356.33 1087.5,1356C 1088.89,1353.95 1090.05,1351.79 1091,1349.5C 1091.33,1349.83 1091.67,1350.17 1092,1350.5C 1093.4,1349.77 1094.9,1349.27 1096.5,1349C 1097.83,1347.33 1097.83,1345.67 1096.5,1344C 1098.83,1343.67 1101.17,1343.33 1103.5,1343C 1105.18,1341.05 1105.85,1339.05 1105.5,1337C 1107.58,1336.81 1109.58,1336.31 1111.5,1335.5C 1112.75,1333.96 1112.75,1332.46 1111.5,1331C 1113.95,1330.71 1116.29,1330.04 1118.5,1329C 1120.53,1327.81 1120.86,1326.31 1119.5,1324.5C 1122.16,1323.74 1124.82,1323.07 1127.5,1322.5C 1128.75,1320.99 1128.75,1319.49 1127.5,1318C 1129.83,1317.67 1132.17,1317.33 1134.5,1317C 1136.62,1315.48 1136.95,1313.64 1135.5,1311.5C 1137.83,1310.83 1140.17,1310.17 1142.5,1309.5C 1143.75,1307.96 1143.75,1306.46 1142.5,1305C 1145.33,1304.95 1147.83,1304.12 1150,1302.5C 1150.72,1300.89 1150.55,1299.39 1149.5,1298C 1152.09,1297.77 1154.59,1297.27 1157,1296.5C 1157.49,1294.87 1157.66,1293.2 1157.5,1291.5C 1159.56,1291.31 1161.56,1290.81 1163.5,1290C 1164.83,1288.33 1164.83,1286.67 1163.5,1285C 1169.12,1285.33 1172.12,1283 1172.5,1278C 1175.01,1277.91 1177.17,1277.07 1179,1275.5C 1179.68,1274.22 1179.52,1273.05 1178.5,1272C 1180.88,1271.49 1183.21,1270.82 1185.5,1270C 1186.75,1268.54 1186.75,1267.04 1185.5,1265.5C 1187.77,1264.69 1190.1,1264.19 1192.5,1264C 1194.53,1262.6 1194.86,1260.94 1193.5,1259C 1195.71,1257.96 1198.05,1257.29 1200.5,1257C 1201.75,1255.54 1201.75,1254.04 1200.5,1252.5C 1202.42,1251.69 1204.42,1251.19 1206.5,1251C 1208.11,1248.91 1208.95,1246.74 1209,1244.5C 1213.52,1245.48 1215.35,1243.48 1214.5,1238.5C 1220.36,1239.81 1222.86,1237.47 1222,1231.5C 1223.46,1232.75 1224.96,1232.75 1226.5,1231.5C 1228.4,1230.06 1228.73,1228.4 1227.5,1226.5C 1229.69,1225.78 1231.85,1225.11 1234,1224.5C 1234.5,1222.53 1234.66,1220.53 1234.5,1218.5C 1236.6,1218.8 1238.6,1218.47 1240.5,1217.5C 1241.75,1215.96 1241.75,1214.46 1240.5,1213C 1245.79,1213.21 1248.13,1210.71 1247.5,1205.5C 1249.2,1205.66 1250.87,1205.49 1252.5,1205C 1254.44,1203.18 1255.11,1201.18 1254.5,1199C 1259.32,1199.74 1260.98,1197.74 1259.5,1193C 1261.56,1192.69 1263.56,1192.19 1265.5,1191.5C 1266.75,1189.99 1266.75,1188.49 1265.5,1187C 1267.09,1186.14 1268.75,1185.47 1270.5,1185C 1272.53,1183.81 1272.86,1182.31 1271.5,1180.5C 1274.16,1179.5 1276.5,1178 1278.5,1176C 1276.09,1173.96 1276.75,1172.96 1280.5,1173C 1283.05,1171.68 1283.71,1169.85 1282.5,1167.5C 1284.34,1166.77 1286.17,1166.1 1288,1165.5C 1287.8,1160.89 1289.97,1158.89 1294.5,1159.5C 1295.05,1157.67 1295.05,1156 1294.5,1154.5C 1296.5,1153.83 1298.5,1153.17 1300.5,1152.5C 1301.75,1150.96 1301.75,1149.46 1300.5,1148C 1302.38,1146.98 1304.38,1146.15 1306.5,1145.5C 1307.83,1144.17 1307.83,1142.83 1306.5,1141.5C 1311.98,1141.21 1314.15,1138.54 1313,1133.5C 1314.67,1132.83 1316.33,1132.17 1318,1131.5C 1318.68,1130.22 1318.52,1129.05 1317.5,1128C 1320.94,1126.68 1322.27,1124.18 1321.5,1120.5C 1326.5,1121.5 1328.5,1119.5 1327.5,1114.5C 1332.7,1114.92 1334.36,1112.75 1332.5,1108C 1335.01,1107.91 1337.17,1107.07 1339,1105.5C 1339.68,1104.22 1339.52,1103.05 1338.5,1102C 1339.93,1100.11 1341.6,1098.45 1343.5,1097C 1342.83,1096.33 1342.17,1095.67 1341.5,1095C 1343.13,1094.51 1344.8,1094.34 1346.5,1094.5C 1345.09,1089.07 1347.09,1086.74 1352.5,1087.5C 1352.5,1085.17 1352.5,1082.83 1352.5,1080.5C 1356.95,1081.13 1358.61,1079.46 1357.5,1075.5C 1359.74,1073.64 1360.4,1071.47 1359.5,1069C 1361.47,1068.5 1363.47,1068.34 1365.5,1068.5C 1365.19,1065.75 1365.52,1063.09 1366.5,1060.5C 1367.17,1060.83 1367.83,1061.17 1368.5,1061.5C 1371.28,1060.33 1371.95,1058.49 1370.5,1056C 1372.67,1054.14 1373.33,1051.98 1372.5,1049.5C 1374.4,1048.53 1376.4,1048.2 1378.5,1048.5C 1378.34,1045.81 1378.5,1043.15 1379,1040.5C 1380.11,1039.24 1380.28,1038.07 1379.5,1037C 1381.25,1035.68 1383.25,1035.18 1385.5,1035.5C 1385.34,1032.81 1385.5,1030.15 1386,1027.5C 1387.33,1028.83 1388.67,1028.83 1390,1027.5C 1390.17,1025.29 1390.84,1023.29 1392,1021.5C 1392.16,1019.14 1392.16,1016.81 1392,1014.5C 1393.7,1015.41 1395.53,1015.74 1397.5,1015.5C 1397.93,1011.18 1398.26,1006.84 1398.5,1002.5C 1400.47,1002.74 1402.3,1002.41 1404,1001.5C 1405.41,996.509 1405.74,991.509 1405,986.5C 1405.88,989.346 1407.55,990.013 1410,988.5C 1411.05,982.883 1411.72,977.216 1412,971.5C 1412.11,974.646 1413.44,975.646 1416,974.5C 1417.75,968.977 1418.75,963.311 1419,957.5C 1420.67,956.833 1422.33,956.167 1424,955.5C 1424.33,949.833 1424.67,944.167 1425,938.5C 1427,937.833 1429,937.167 1431,936.5C 1431.33,930.5 1431.67,924.5 1432,918.5C 1433.36,917.62 1434.86,917.286 1436.5,917.5C 1437.11,909.514 1437.61,901.514 1438,893.5C 1439.44,891.845 1441.28,891.178 1443.5,891.5C 1444.22,877.517 1444.72,863.517 1445,849.5C 1445.55,854.348 1446.88,854.682 1449,850.5C 1451.31,829.115 1450.98,807.781 1448,786.5C 1447.67,786.167 1447.33,785.833 1447,785.5C 1445.85,788.711 1445.18,792.044 1445,795.5C 1444.72,781.483 1444.22,767.483 1443.5,753.5C 1441.53,753.739 1439.7,753.406 1438,752.5C 1437.5,746.175 1437.33,739.842 1437.5,733.5C 1435.55,733.773 1434.05,733.107 1433,731.5C 1432.67,731.833 1432.33,732.167 1432,732.5C 1431.67,726.833 1431.33,721.167 1431,715.5C 1429.22,714.76 1427.38,714.093 1425.5,713.5C 1424.51,709.555 1424.18,705.555 1424.5,701.5C 1422.5,701.167 1420.5,700.833 1418.5,700.5C 1418.13,697.383 1418.13,694.383 1418.5,691.5C 1417.83,688.167 1415.83,686.833 1412.5,687.5C 1413.36,683.838 1412.03,681.672 1408.5,681C 1409.38,679.644 1409.71,678.144 1409.5,676.5C 1407.86,676.714 1406.36,676.38 1405,675.5C 1406.54,670.597 1404.71,668.264 1399.5,668.5C 1400.81,662.638 1398.47,660.138 1392.5,661C 1393.75,659.542 1393.75,658.042 1392.5,656.5C 1390.73,655.813 1389.06,654.98 1387.5,654C 1387.96,653.586 1388.29,653.086 1388.5,652.5C 1386.85,649.261 1384.18,647.761 1380.5,648C 1382.01,647.163 1382.51,645.996 1382,644.5C 1379.6,643.144 1377.1,641.977 1374.5,641C 1375.83,639.667 1375.83,638.333 1374.5,637C 1371.96,635.908 1369.29,635.241 1366.5,635C 1367.8,629.476 1365.47,627.309 1359.5,628.5C 1359.74,626.533 1359.41,624.699 1358.5,623C 1355.17,622.667 1351.83,622.333 1348.5,622C 1351.13,619.211 1350.46,617.211 1346.5,616C 1343.83,615.667 1341.17,615.333 1338.5,615C 1339.86,613.062 1339.53,611.396 1337.5,610C 1333.5,609.667 1329.5,609.333 1325.5,609C 1327.32,605.613 1326.32,603.613 1322.5,603C 1317.83,602.667 1313.17,602.333 1308.5,602C 1311.15,599.918 1310.82,598.251 1307.5,597C 1300.5,596.667 1293.5,596.333 1286.5,596C 1289,594.216 1289,592.549 1286.5,591C 1260.22,589.37 1233.88,589.036 1207.5,590C 1205.5,590.333 1203.5,590.667 1201.5,591C 1198.96,592.563 1198.96,594.063 1201.5,595.5C 1194.52,596.331 1187.52,596.831 1180.5,597C 1177.18,598.251 1176.85,599.918 1179.5,602C 1174.5,602.333 1169.5,602.667 1164.5,603C 1160.4,604.101 1159.73,606.101 1162.5,609C 1157.83,609.333 1153.17,609.667 1148.5,610C 1146.47,611.194 1146.14,612.694 1147.5,614.5C 1143.49,615.031 1139.66,616.031 1136,617.5C 1135.28,619.112 1135.45,620.612 1136.5,622C 1132.71,622.16 1129.05,622.826 1125.5,624C 1124.17,625.333 1124.17,626.667 1125.5,628C 1122.27,628.203 1119.1,629.036 1116,630.5C 1115.28,632.112 1115.45,633.612 1116.5,635C 1114.17,635.333 1111.83,635.667 1109.5,636C 1106.65,636.879 1105.99,638.546 1107.5,641C 1104.96,642.092 1102.29,642.759 1099.5,643C 1097.47,644.396 1097.14,646.062 1098.5,648C 1092.7,647.306 1090.03,649.806 1090.5,655.5C 1085.07,654.094 1082.74,656.094 1083.5,661.5C 1078.02,660.807 1076.02,662.974 1077.5,668C 1075.24,668.236 1073.07,668.736 1071,669.5C 1070.67,671.5 1070.33,673.5 1070,675.5C 1068.54,674.253 1067.04,674.253 1065.5,675.5C 1064.88,677.966 1064.04,680.299 1063,682.5C 1061.7,682.034 1060.2,682.034 1058.5,682.5C 1058.66,684.199 1058.49,685.866 1058,687.5C 1055.31,688.946 1054.47,690.946 1055.5,693.5C 1053.83,694.167 1052.17,694.833 1050.5,695.5C 1049.91,697.382 1049.24,699.215 1048.5,701C 1043.86,700.953 1042.53,702.953 1044.5,707C 1042.57,707.251 1040.73,707.751 1039,708.5C 1038.34,712.609 1037.5,716.609 1036.5,720.5C 1034.53,720.261 1032.7,720.594 1031,721.5C 1030.63,723.898 1030.63,726.231 1031,728.5C 1029.19,727.24 1027.35,727.24 1025.5,728.5C 1025.14,732.34 1024.48,736.34 1023.5,740.5C 1018.11,739.554 1016.44,741.554 1018.5,746.5C 1018,747.5 1017.5,748.5 1017,749.5C 1015.99,748.663 1014.82,748.33 1013.5,748.5C 1013.29,750.144 1013.62,751.644 1014.5,753C 1013.55,753.483 1012.55,753.649 1011.5,753.5C 1012.08,758.118 1011.08,762.285 1008.5,766C 1003.18,766.499 997.844,766.666 992.5,766.5C 992.515,762.44 992.015,758.44 991,754.5C 989.175,753.897 987.341,753.23 985.5,752.5C 986.248,750.584 986.248,748.584 985.5,746.5C 984.448,746.649 983.448,746.483 982.5,746C 983.337,744.989 983.67,743.822 983.5,742.5C 982.022,742.762 980.689,742.429 979.5,741.5C 979.354,739.194 979.021,736.861 978.5,734.5C 976.955,733.548 975.288,733.215 973.5,733.5C 972.685,729.856 971.852,726.189 971,722.5C 969.257,720.773 967.424,720.106 965.5,720.5C 967.561,715.554 965.894,713.554 960.5,714.5C 961.274,710.758 959.941,708.258 956.5,707C 957.517,705.951 957.684,704.784 957,703.5C 955.667,702.833 954.333,702.167 953,701.5C 953.921,696.102 951.754,693.769 946.5,694.5C 947.86,689.25 945.86,686.583 940.5,686.5C 941.214,682.232 939.214,680.565 934.5,681.5C 935.495,676.458 933.495,674.125 928.5,674.5C 929.231,669.246 926.898,667.079 921.5,668C 923.007,667.163 923.507,665.996 923,664.5C 921.113,662.114 918.613,660.947 915.5,661C 916.479,656.483 914.479,654.65 909.5,655.5C 910,649.671 907.334,647.337 901.5,648.5C 902.231,643.246 899.898,641.079 894.5,642C 895.108,639.816 894.441,637.816 892.5,636C 889.833,635.667 887.167,635.333 884.5,635C 885.747,633.506 885.747,632.006 884.5,630.5C 881.54,629.375 878.54,628.375 875.5,627.5C 876.347,625.939 876.014,624.439 874.5,623C 871.167,622.667 867.833,622.333 864.5,622C 865.833,620.333 865.833,618.667 864.5,617C 860.584,615.898 856.584,615.231 852.5,615C 853.86,613.062 853.527,611.396 851.5,610C 847.167,609.667 842.833,609.333 838.5,609C 840.658,607.688 840.991,606.022 839.5,604C 833.551,602.927 827.551,602.26 821.5,602C 823.013,599.546 822.346,597.879 819.5,597C 812.5,596.667 805.5,596.333 798.5,596C 799.574,595.261 800.241,594.261 800.5,593C 799.008,591.115 797.008,590.115 794.5,590C 768.835,589.5 743.169,589.333 717.5,589.5 Z"/></g>
</svg>
