<?xml version="1.0" encoding="UTF-8"?>
<!DOCTYPE svg PUBLIC "-//W3C//DTD SVG 1.1//EN" "http://www.w3.org/Graphics/SVG/1.1/DTD/svg11.dtd">
<svg xmlns="http://www.w3.org/2000/svg" version="1.1" width="2000px" height="2000px" style="shape-rendering:geometricPrecision; text-rendering:geometricPrecision; image-rendering:optimizeQuality; fill-rule:evenodd; clip-rule:evenodd" xmlns:xlink="http://www.w3.org/1999/xlink">
<g><path style="opacity:0.855" fill="#babbba" d="M 957.5,65.5 C 1217.14,57.8535 1442.81,140.353 1634.5,313C 1818.12,487.131 1917.62,701.298 1933,955.5C 1941.35,1215.53 1859.02,1441.53 1686,1633.5C 1511.61,1817.42 1297.11,1916.92 1042.5,1932C 782.835,1940.14 557.168,1857.8 365.5,1685C 181.581,1510.61 82.0809,1296.11 67,1041.5C 58.8625,781.835 141.196,556.168 314,364.5C 488.578,180.649 703.078,80.9826 957.5,65.5 Z M 994.5,72.5 C 1259.36,75.6634 1484.19,170.997 1669,358.5C 1836.9,538.042 1922.73,751.542 1926.5,999C 1921.91,1261.73 1826.58,1484.73 1640.5,1668C 1460.96,1835.9 1247.46,1921.73 1000,1925.5C 752.019,1921.68 538.185,1835.52 358.5,1667C 172.995,1483.88 77.9949,1261.22 73.5,999C 78.0838,736.271 173.417,513.271 359.5,330C 537.715,163.605 749.382,77.7717 994.5,72.5 Z"/></g>
<g><path style="opacity:1" fill="#babbba" d="M 411.5,522.5 C 808.167,522.5 1204.83,522.5 1601.5,522.5C 1601.5,526.167 1601.5,529.833 1601.5,533.5C 1204.83,533.5 808.167,533.5 411.5,533.5C 411.5,529.833 411.5,526.167 411.5,522.5 Z"/></g>
<g><path style="opacity:1" fill="#babbba" d="M 411.5,836.5 C 808.167,836.5 1204.83,836.5 1601.5,836.5C 1601.5,840.167 1601.5,843.833 1601.5,847.5C 1204.83,847.5 808.167,847.5 411.5,847.5C 411.5,843.833 411.5,840.167 411.5,836.5 Z"/></g>
<g><path style="opacity:1" fill="#babbba" d="M 411.5,1151.5 C 808.167,1151.5 1204.83,1151.5 1601.5,1151.5C 1601.5,1155.17 1601.5,1158.83 1601.5,1162.5C 1204.83,1162.5 808.167,1162.5 411.5,1162.5C 411.5,1158.83 411.5,1155.17 411.5,1151.5 Z"/></g>
<g><path style="opacity:1" fill="#babbba" d="M 411.5,1465.5 C 808.167,1465.5 1204.83,1465.5 1601.5,1465.5C 1601.5,1469.17 1601.5,1472.83 1601.5,1476.5C 1204.83,1476.5 808.167,1476.5 411.5,1476.5C 411.5,1472.83 411.5,1469.17 411.5,1465.5 Z"/></g>
</svg>
